<svg width="21" height="21" viewBox="0 0 21 21" fill="none" xmlns="http://www.w3.org/2000/svg">
<g clip-path="url(#clip0_16_277)">
<path fill-rule="evenodd" clip-rule="evenodd" d="M10.8157 0.253662C5.29073 0.253662 0.815735 4.72866 0.815735 10.2537C0.815735 14.6787 3.67823 18.4162 7.65323 19.7412C8.15323 19.8287 8.34073 19.5287 8.34073 19.2662C8.34073 19.0287 8.32823 18.2412 8.32823 17.4037C5.81573 17.8662 5.16573 16.7912 4.96573 16.2287C4.85323 15.9412 4.36573 15.0537 3.94073 14.8162C3.59073 14.6287 3.09073 14.1662 3.92823 14.1537C4.71573 14.1412 5.27823 14.8787 5.46573 15.1787C6.36573 16.6912 7.80323 16.2662 8.37823 16.0037C8.46573 15.3537 8.72823 14.9162 9.01573 14.6662C6.79073 14.4162 4.46573 13.5537 4.46573 9.72866C4.46573 8.64116 4.85323 7.74116 5.49073 7.04116C5.39073 6.79116 5.04073 5.76616 5.59073 4.39116C5.59073 4.39116 6.42823 4.12866 8.34073 5.41616C9.14073 5.19116 9.99073 5.07866 10.8407 5.07866C11.6907 5.07866 12.5407 5.19116 13.3407 5.41616C15.2532 4.11616 16.0907 4.39116 16.0907 4.39116C16.6407 5.76616 16.2907 6.79116 16.1907 7.04116C16.8282 7.74116 17.2157 8.62866 17.2157 9.72866C17.2157 13.5662 14.8782 14.4162 12.6532 14.6662C13.0157 14.9787 13.3282 15.5787 13.3282 16.5162C13.3282 17.8537 13.3157 18.9287 13.3157 19.2662C13.3157 19.5287 13.5032 19.8412 14.0032 19.7412C15.9884 19.0709 17.7134 17.7951 18.9355 16.0931C20.1575 14.3912 20.8151 12.3489 20.8157 10.2537C20.8157 4.72866 16.3407 0.253662 10.8157 0.253662Z" fill="white"/>
</g>
<defs>
<clipPath id="clip0_16_277">
<rect width="20" height="20" fill="white" transform="translate(0.815735 0.253662)"/>
</clipPath>
</defs>
</svg>
