<svg xmlns="http://www.w3.org/2000/svg" xmlns:xlink="http://www.w3.org/1999/xlink" viewBox="0 0 1000 1000"><defs><style>.cls-1{isolation:isolate;}.cls-2,.cls-3,.cls-4,.cls-5,.cls-6{fill:none;stroke-miterlimit:10;stroke-width:2px;}.cls-2{stroke:url(#Degradado_sin_nombre_16);}.cls-3{stroke:url(#Degradado_sin_nombre_16-2);}.cls-4{stroke:url(#Degradado_sin_nombre_16-3);}.cls-5{stroke:url(#Degradado_sin_nombre_16-4);}.cls-6{stroke:url(#Degradado_sin_nombre_16-5);}.cls-10,.cls-11,.cls-12,.cls-13,.cls-14,.cls-15,.cls-16,.cls-17,.cls-18,.cls-19,.cls-20,.cls-21,.cls-22,.cls-23,.cls-25,.cls-26,.cls-7,.cls-9{fill-rule:evenodd;}.cls-7{fill:url(#Áåçûìÿííûé_ãðàäèåíò_533);}.cls-8{opacity:0.58;}.cls-19,.cls-8{mix-blend-mode:multiply;}.cls-9{fill:#9cbdff;}.cls-10{fill:url(#Áåçûìÿííûé_ãðàäèåíò_528);}.cls-11{fill:url(#Áåçûìÿííûé_ãðàäèåíò_528-2);}.cls-12{fill:url(#Áåçûìÿííûé_ãðàäèåíò_528-3);}.cls-13{fill:url(#Áåçûìÿííûé_ãðàäèåíò_528-4);}.cls-14{fill:url(#Áåçûìÿííûé_ãðàäèåíò_528-5);}.cls-15{fill:url(#Áåçûìÿííûé_ãðàäèåíò_528-6);}.cls-16,.cls-22{fill:#a99af4;mix-blend-mode:soft-light;}.cls-17{fill:#573dae;}.cls-18{fill:url(#Áåçûìÿííûé_ãðàäèåíò_528-7);}.cls-19{fill:#a972b0;}.cls-20{fill:url(#Áåçûìÿííûé_ãðàäèåíò_528-8);}.cls-21{fill:url(#Áåçûìÿííûé_ãðàäèåíò_528-9);}.cls-22{opacity:0.88;}.cls-23{fill:#5729ae;}.cls-24{fill:#00e7f4;}.cls-25{fill:url(#Áåçûìÿííûé_ãðàäèåíò_528-10);}.cls-26{fill:url(#Áåçûìÿííûé_ãðàäèåíò_528-11);}</style><linearGradient id="Degradado_sin_nombre_16" x1="4" y1="895.15" x2="996" y2="895.15" gradientUnits="userSpaceOnUse"><stop offset="0" stop-color="#33fdd8"/><stop offset="1" stop-color="#7a4aff"/></linearGradient><linearGradient id="Degradado_sin_nombre_16-2" x1="53.5" y1="895.15" x2="946.5" y2="895.15" xlink:href="#Degradado_sin_nombre_16"/><linearGradient id="Degradado_sin_nombre_16-3" x1="98.05" y1="895.15" x2="901.95" y2="895.15" xlink:href="#Degradado_sin_nombre_16"/><linearGradient id="Degradado_sin_nombre_16-4" x1="138.15" y1="895.15" x2="861.86" y2="895.15" xlink:href="#Degradado_sin_nombre_16"/><linearGradient id="Degradado_sin_nombre_16-5" x1="174.23" y1="895.15" x2="825.77" y2="895.15" xlink:href="#Degradado_sin_nombre_16"/><radialGradient id="Áåçûìÿííûé_ãðàäèåíò_533" cx="392.79" cy="298.33" r="542.61" gradientUnits="userSpaceOnUse"><stop offset="0" stop-color="#b840c7"/><stop offset="0.7" stop-color="#750088"/><stop offset="0.95" stop-color="#5e1377"/><stop offset="1" stop-color="#8160ff"/></radialGradient><linearGradient id="Áåçûìÿííûé_ãðàäèåíò_528" x1="300.22" y1="487.82" x2="300.22" y2="8.35" gradientUnits="userSpaceOnUse"><stop offset="0" stop-color="#4f0e6f"/><stop offset="1" stop-color="#450086"/></linearGradient><linearGradient id="Áåçûìÿííûé_ãðàäèåíò_528-2" x1="720.88" y1="633.53" x2="720.88" y2="104.7" xlink:href="#Áåçûìÿííûé_ãðàäèåíò_528"/><linearGradient id="Áåçûìÿííûé_ãðàäèåíò_528-3" x1="495.48" y1="789.46" x2="495.48" y2="675.62" xlink:href="#Áåçûìÿííûé_ãðàäèåíò_528"/><linearGradient id="Áåçûìÿííûé_ãðàäèåíò_528-4" x1="358.84" y1="831.96" x2="358.84" y2="769.3" xlink:href="#Áåçûìÿííûé_ãðàäèåíò_528"/><linearGradient id="Áåçûìÿííûé_ãðàäèåíò_528-5" x1="678.95" y1="867.05" x2="678.95" y2="710.9" xlink:href="#Áåçûìÿííûé_ãðàäèåíò_528"/><linearGradient id="Áåçûìÿííûé_ãðàäèåíò_528-6" x1="664.74" y1="165.13" x2="664.74" y2="32.79" xlink:href="#Áåçûìÿííûé_ãðàäèåíò_528"/><linearGradient id="Áåçûìÿííûé_ãðàäèåíò_528-7" x1="731.86" y1="700.76" x2="731.86" y2="637.79" xlink:href="#Áåçûìÿííûé_ãðàäèåíò_528"/><linearGradient id="Áåçûìÿííûé_ãðàäèåíò_528-8" x1="559.15" y1="443.74" x2="559.15" y2="289.85" xlink:href="#Áåçûìÿííûé_ãðàäèåíò_528"/><linearGradient id="Áåçûìÿííûé_ãðàäèåíò_528-9" x1="425.78" y1="489.15" x2="425.78" y2="447.04" xlink:href="#Áåçûìÿííûé_ãðàäèåíò_528"/><linearGradient id="Áåçûìÿííûé_ãðàäèåíò_528-10" x1="196.06" y1="700.96" x2="196.06" y2="590.02" xlink:href="#Áåçûìÿííûé_ãðàäèåíò_528"/><linearGradient id="Áåçûìÿííûé_ãðàäèåíò_528-11" x1="167.98" y1="566.42" x2="167.98" y2="529.11" xlink:href="#Áåçûìÿííûé_ãðàäèåíò_528"/></defs><g class="cls-1"><g id="Capa_1" data-name="Capa 1"><ellipse class="cls-2" cx="500" cy="895.15" rx="495" ry="96.51"/><ellipse class="cls-3" cx="500" cy="895.15" rx="445.5" ry="86.86"/><ellipse class="cls-4" cx="500" cy="895.15" rx="400.95" ry="78.17"/><ellipse class="cls-5" cx="500" cy="895.15" rx="360.85" ry="70.35"/><ellipse class="cls-6" cx="500" cy="895.15" rx="324.77" ry="63.32"/><path class="cls-7" d="M871.64,427.46c0,217.94-176.72,394.61-394.67,394.61a392.63,392.63,0,0,1-167.78-37.39c-10-4.7-19.86-9.87-29.44-15.38a394.9,394.9,0,0,1-101.3-83.84,386.12,386.12,0,0,1-29.21-38.14,395.16,395.16,0,0,1-31.81-382.71,384.11,384.11,0,0,1,24.67-46A392.92,392.92,0,0,1,214.33,133l0-.06A394.31,394.31,0,0,1,686.91,93.23H687q10.37,6.52,20.21,13.64c5.51,3.95,10.91,8.07,16.2,12.31A394.5,394.5,0,0,1,869.2,383.74,386.92,386.92,0,0,1,871.64,427.46Z"/><g class="cls-8"><path class="cls-9" d="M354.55,472c-2.58,1.06-7.5,2.55-6.68,4.92.38,1.1,1.46,2,2,3.11a8.42,8.42,0,0,1,.95,2.88,7.34,7.34,0,0,0,2.92,4.41c1.19.78,2.44,0,3.24-.76s1.78-1.64,1.86-2.61a11.54,11.54,0,0,1,.72-3.74c.21-.47.81-.9,1-1.4a5.26,5.26,0,0,0,.13-2.05C360.63,475.26,358.84,472.51,354.55,472Z"/><path class="cls-9" d="M344.1,491.72c-.33-.66-.14-1.19.59-1.61,3.82.05,5.17,4.65,1.57,5.54-4.14,1-4.65-2.43-3.39-3.93Z"/><path class="cls-9" d="M273.46,521.18c2-.59,3.66-1.39,5.88-1.09a10.6,10.6,0,0,1,4.64,1.8,8.77,8.77,0,0,1,2.86,3.8c.33.67.86,1.29.56,2-1.2,2.74-6.35,4.67-10.44,5.46a48,48,0,0,1-7,1.1c-1.68.08-3.4.24-5.07.41a15.27,15.27,0,0,1-4.16.27,14.05,14.05,0,0,1-3.26-1.11c-2.72-1.26-4.43-3.1-4.3-5.14.23-3.57,7.24-6.42,12-7.87C269.08,519.61,275.3,518.13,273.46,521.18Z"/><path class="cls-9" d="M291.89,516.33c-.57,1-1.06,1.33.3,1.89a6.25,6.25,0,0,0,3.41.17c2.06-.41,4.63-2.3,3.1-3.58a8.66,8.66,0,0,0-3.88-1.88c-2.52-.15-5.69,2-5.39,3.4Z"/><path class="cls-9" d="M371.75,538.89c.64-.66,1.52-1.87,3.15-1.66a1.76,1.76,0,0,1,1.47,2.37c-.43,1.81-4.25-.08-4-1.27Z"/><path class="cls-9" d="M400.93,550.27c-.55.7-1.05,1.35-.79,2.13.37,1.12,1.78,1.57,3.56,1.61,2.73.06,4.6-.36,5.16-2.07.34-1-.83-2.64-2.09-3.36a5.14,5.14,0,0,0-2.24-.56,4,4,0,0,0-3.3,1.5Z"/><path class="cls-9" d="M488.47,591.48c-.63.31-1.45.59-1.62,1.07a1.47,1.47,0,0,0,.08.77c.41,1.1,3.43,1.16,4.92,1.16,4.11,0,8.82-.75,11.81-2.55,1.91-1.15,3.66-3.17,3.09-4.84-.79-2.32-4.91-3.63-8.43-4.11-3.3-.45-7.94-.56-10.5,1a3.49,3.49,0,0,0-1.81,2.07c-.09.61.29,1.21.31,1.82,0,.83-.68,1.55,0,2.36A4.53,4.53,0,0,0,488.47,591.48Z"/><path class="cls-9" d="M513,591.66c-.22-.69-.15-.77.51-1.3a2.65,2.65,0,0,1,2.26-.54c1.57.23,2.52,1.35,1.85,2.22A4.06,4.06,0,0,1,515,593a2.76,2.76,0,0,1-2.58-1.12Z"/><path class="cls-9" d="M544.67,537.59c-1.68.46-2.27.63-3.17,1.53-.44.45-.65.78-.28,1.3.9,1.26,3.53,2.52,5.62,3a10.2,10.2,0,0,0,4.92-.23,13.78,13.78,0,0,0,3.2-2,29.1,29.1,0,0,0,2.41-1.88c1.32-1.13,2.36-2.39,1-3.69a9,9,0,0,0-6-2,14.58,14.58,0,0,0-4.52,1C546.35,535.09,545,535.4,544.67,537.59Z"/><path class="cls-9" d="M536.38,543.18a14.32,14.32,0,0,1,3.53.59c0,.33.65.52.42.91-.32.56-1.86.39-2.57.37a5.13,5.13,0,0,1-2.48-.66c-.22-.14-1.24-.78-.44-.84Z"/><path class="cls-9" d="M425.5,586.81c-.77.86-1.64,1.8-.28,2.74s3.66.67,5.19.25c.81-.23,1.74-.48,1.86-1a11,11,0,0,0,0-1.81c.05-1.4,2.37-2.4.28-3.74a7.2,7.2,0,0,0-3.94-.85,5.92,5.92,0,0,0-4.32,3Z"/><path class="cls-9" d="M239.36,638.46a18.6,18.6,0,0,0-6.88,2.28c0,.21.06.42.08.63a2.63,2.63,0,0,0,.15,3.26c2.75,3.18,8.21,2.79,13.17,2.78,5.31,0,12.08.35,9.64-4.12-1.11-2-2.66-5.38-5.77-6.66-1.65-.67-2.49-.36-4.09,0-2,.46-4.69.91-6.3,1.83Z"/><path class="cls-9" d="M300.18,643.5c.81-.88,2-2.56,4.1-2.71,1.68-.11,2.27.49,3.5,1,2.69,1.17,5.24,2.7,2.58,4.8a10.14,10.14,0,0,1-6,1.33c-1.76-.19-4.72-1.5-4.15-2.76Z"/><path class="cls-9" d="M554.5,361.57c-2,2.45-2.14,2.59-1,5.07.86,1.86,1.44,4,3.75,5.41,3,1.93,7.22,1.46,11,2,3,.39,4.73.52,7.35-.72a23.05,23.05,0,0,0,6.61-4.76c5.15-5.54,4.91-13.64.75-19.32-2.73-3.72-6.8-8-13.76-9.18-5.84-1-12.54-.19-16.68,2.54s-5.25,6.76-4,10.32c.4.84.79,1.69,1.16,2.53a10.12,10.12,0,0,1,.13,3.29C550,359.88,551.11,360.94,554.5,361.57Z"/><path class="cls-9" d="M543.45,371.08c3.85,1.86,3.29,1.55,3.87,3.91.25,1,.94,1.27.57,2.25-.46,1.2-3.34,2.4-5.41,2.29-1.65-.1-4.17-2-4.83-2.73-1-1.16-.64-1.79.27-2.92Z"/><path class="cls-9" d="M155.51,370.52c-.82,2-1.92,4.45,1.78,5.83,2.53.94,6.42,0,8.63-1.05,3.15-1.47,6.54-5.18,7.06-7.58.56-2.6-4.56-5.35-8.48-5.64-8-.6-12.21,7.06-12.67,10.68Z"/><path class="cls-9" d="M150,392.89c-.45-.57-2.37-2.22-2-2.93.15-.34.8-.4,1.06-.66a6.14,6.14,0,0,1,4-2c3.92-.4,7.08.46,9,2.56,1.3,1.37,1.32,2.78-.57,3.92-2.07,1.25-6.55,1.82-8.68.27Z"/><path class="cls-9" d="M502.9,652.45c-2.7,3.42-2.36,7.22-1.17,11,.76,2.38,1.31,5.52,5.51,6.58,9.84,2.48,17.41-10.35,19.28-14.45a16.31,16.31,0,0,0,1.12-10.95c-.62-2.14-3.39-6.42-6.84-7.52-4.45-1.42-9.48.32-12.18,2.45-6.25,4.92-4.64,11.25-7.56,16.84Z"/><path class="cls-9" d="M497.83,651.61c-1,.11-5.51.32-7.05.94-1.09.44-2.82,1.11-3.12,1.9-.43,1.09.85,2.2,2.07,2.89a5.54,5.54,0,0,0,3.49.66,6.17,6.17,0,0,0,2.19-1.43,13.49,13.49,0,0,0,2.42-2.74,5.49,5.49,0,0,0,.95-1.38c.23-.78-.62-1.06-.95-1.68Z"/><path class="cls-9" d="M634.49,298c-2.57,1.06-7.5,2.54-6.67,4.91.38,1.1,1.45,2.05,2,3.11a8.71,8.71,0,0,1,.95,2.88,7.27,7.27,0,0,0,2.92,4.41c1.19.78,2.44,0,3.24-.76s1.77-1.64,1.86-2.61a11.33,11.33,0,0,1,.72-3.74c.2-.47.8-.9,1-1.4a5.25,5.25,0,0,0,.14-2C640.58,301.27,638.79,298.52,634.49,298Z"/><path class="cls-9" d="M624.05,317.73c-.34-.65-.14-1.19.58-1.61,3.83.05,5.18,4.65,1.57,5.54-4.14,1-4.65-2.43-3.38-3.93Z"/><path class="cls-9" d="M651.69,364.91c.65-.67,1.52-1.88,3.16-1.66a1.74,1.74,0,0,1,1.46,2.36c-.43,1.81-4.25-.08-4-1.26Z"/><path class="cls-9" d="M680.87,376.28c-.54.71-1,1.35-.78,2.14.37,1.12,1.77,1.56,3.55,1.6,2.74.07,4.6-.36,5.16-2.06.35-1-.82-2.65-2.09-3.37a5.14,5.14,0,0,0-2.24-.56,4.05,4.05,0,0,0-3.29,1.5Z"/><path class="cls-9" d="M768.41,417.49c-.63.32-1.45.59-1.61,1.07a1.46,1.46,0,0,0,.07.77c.41,1.11,3.44,1.16,4.92,1.17,4.11,0,8.82-.76,11.81-2.56,1.92-1.15,3.66-3.17,3.09-4.84-.78-2.31-4.9-3.62-8.43-4.11-3.29-.45-7.94-.56-10.49,1a3.5,3.5,0,0,0-1.82,2.06c-.09.62.3,1.21.32,1.83,0,.82-.68,1.54,0,2.35A4.45,4.45,0,0,0,768.41,417.49Z"/><path class="cls-9" d="M793,417.67c-.22-.69-.14-.77.51-1.3a2.67,2.67,0,0,1,2.26-.54c1.57.23,2.52,1.36,1.85,2.23a4.17,4.17,0,0,1-2.66.93,2.75,2.75,0,0,1-2.57-1.13Z"/><path class="cls-9" d="M578,97.18c-1.68.46-2.27.63-3.17,1.53-.44.45-.65.78-.29,1.3.91,1.26,3.54,2.52,5.63,3a10.08,10.08,0,0,0,4.92-.22,14,14,0,0,0,3.2-2,29.1,29.1,0,0,0,2.41-1.88c1.32-1.13,2.36-2.39,1-3.69a9,9,0,0,0-6-2,14.58,14.58,0,0,0-4.52,1C579.62,94.68,578.29,95,578,97.18Z"/><path class="cls-9" d="M569.66,102.77a14.64,14.64,0,0,1,3.52.58c0,.34.66.53.43.92-.32.56-1.86.39-2.57.37a5.1,5.1,0,0,1-2.48-.66c-.23-.14-1.24-.78-.44-.84Z"/><path class="cls-9" d="M705.44,412.83c-.77.86-1.63,1.8-.28,2.73s3.66.67,5.19.25c.81-.23,1.75-.47,1.87-1a10.82,10.82,0,0,0,0-1.8c.06-1.4,2.38-2.4.29-3.75a7.23,7.23,0,0,0-4-.85,5.86,5.86,0,0,0-4.31,3Z"/><path class="cls-9" d="M580.13,469.51c.81-.88,2-2.56,4.09-2.7,1.69-.12,2.27.48,3.5,1,2.7,1.17,5.25,2.7,2.58,4.8a10.11,10.11,0,0,1-6,1.33c-1.76-.19-4.72-1.49-4.14-2.76Z"/><path class="cls-9" d="M782.85,478.46c-2.7,3.43-2.37,7.23-1.17,11,.76,2.38,1.31,5.52,5.5,6.57,9.84,2.49,17.42-10.35,19.28-14.45a16.32,16.32,0,0,0,1.13-10.95c-.62-2.14-3.39-6.42-6.85-7.52-4.45-1.41-9.47.32-12.18,2.45-6.24,4.93-4.64,11.25-7.56,16.85Z"/><path class="cls-9" d="M777.78,477.62c-1,.11-5.52.33-7,.94-1.1.44-2.82,1.11-3.13,1.9-.42,1.09.85,2.2,2.07,2.9a5.55,5.55,0,0,0,3.5.65,6,6,0,0,0,2.19-1.43,13.75,13.75,0,0,0,2.42-2.73,5.41,5.41,0,0,0,.94-1.39c.24-.78-.62-1-.94-1.68Z"/><path class="cls-9" d="M556.78,626.69c.64-.66,1.52-1.87,3.15-1.66a1.75,1.75,0,0,1,1.47,2.37c-.43,1.81-4.25-.08-4-1.27Z"/><path class="cls-9" d="M586,638.06c-.55.71-1.05,1.36-.79,2.14.37,1.12,1.78,1.56,3.56,1.61,2.73.06,4.6-.36,5.16-2.07.34-1-.83-2.64-2.09-3.36a5.14,5.14,0,0,0-2.24-.57,4.05,4.05,0,0,0-3.3,1.51Z"/><path class="cls-9" d="M673.5,679.27c-.63.32-1.45.6-1.62,1.08a1.53,1.53,0,0,0,.08.76c.41,1.11,3.43,1.17,4.92,1.17,4.11,0,8.82-.76,11.81-2.55,1.91-1.15,3.66-3.17,3.09-4.85-.79-2.31-4.91-3.62-8.43-4.1-3.3-.46-7.94-.56-10.49,1a3.45,3.45,0,0,0-1.82,2.07c-.09.61.29,1.2.31,1.82,0,.83-.68,1.54,0,2.35A4.53,4.53,0,0,0,673.5,679.27Z"/><path class="cls-9" d="M698.07,679.46c-.22-.69-.15-.77.51-1.3a2.63,2.63,0,0,1,2.26-.54c1.57.23,2.52,1.35,1.85,2.22a4.06,4.06,0,0,1-2.66.93,2.78,2.78,0,0,1-2.58-1.12Z"/><path class="cls-9" d="M610.53,674.61c-.77.86-1.63,1.8-.28,2.73s3.66.68,5.19.25c.81-.22,1.74-.47,1.86-1a10.84,10.84,0,0,0,0-1.8c.05-1.4,2.37-2.4.28-3.74a7.2,7.2,0,0,0-3.94-.85,5.86,5.86,0,0,0-4.32,3Z"/><path class="cls-9" d="M687.93,740.25c-2.7,3.42-2.36,7.22-1.17,11,.76,2.38,1.32,5.52,5.51,6.58,9.84,2.48,17.41-10.35,19.28-14.45a16.32,16.32,0,0,0,1.12-11c-.62-2.15-3.39-6.43-6.84-7.53-4.45-1.41-9.48.32-12.18,2.46-6.25,4.92-4.64,11.24-7.56,16.84Z"/><path class="cls-9" d="M682.86,739.41c-1,.1-5.51.32-7,.94-1.1.44-2.83,1.11-3.13,1.9-.43,1.09.85,2.2,2.07,2.89a5.61,5.61,0,0,0,3.49.66,5.89,5.89,0,0,0,2.19-1.44,13.44,13.44,0,0,0,2.42-2.73,5.67,5.67,0,0,0,.95-1.38c.24-.79-.62-1.06-.95-1.68Z"/><path class="cls-9" d="M492.3,682.93l3.33.94c-.22.79.27,1.71-1,2.22a10.22,10.22,0,0,1-4.17.15c-1.44-.33-2.37-1-2.31-1.91.07-1.06,1.64-1.49,3.23-1.68Z"/><path class="cls-9" d="M339.34,725.17c-.52,1-.71,1.72.6,2.53a7.47,7.47,0,0,0,6.75.41c2.9-1.37,6.09-4.43,5.26-6.8-.52-1.48-3.68-3.21-6.16-2.31a21.73,21.73,0,0,0-3.93,1.69,5.69,5.69,0,0,0-2.52,4.2Z"/><path class="cls-9" d="M461.44,231.23c-1.15.66-1.74.87-2,1.77a2.57,2.57,0,0,0,.48,2.94c1.89,1.82,6.67,3,10.06,3.52a14.06,14.06,0,0,0,8.1-.93c2.88-1.26,4.7-2.85,5.19-5s-.21-3.87-3.38-5.24a32.69,32.69,0,0,0-9.14-2.62,11.72,11.72,0,0,0-7.12,1.33C461.65,228,459.07,229.83,461.44,231.23Z"/><path class="cls-9" d="M487.24,238.22c.06-.58-.14-1.26.93-1.42a9,9,0,0,1,4.68,1.13c.72.46,1.51,1.55,1.35,2.21s-1,1-1.66,1.28a5,5,0,0,1-3.73.17c-.82-.3-2.83-1-2.5-1.69Z"/><path class="cls-9" d="M408.45,164.11a2.67,2.67,0,0,0,.92,2.51,16.34,16.34,0,0,0,5.5,3.33,24.08,24.08,0,0,0,9.7,1.75c2.41-.12,4.71-1.77,5.06-3.14.43-1.64-.61-4-2.24-5.37a22.49,22.49,0,0,0-14.34-4.41C406.74,159.1,406.52,164.8,408.45,164.11Z"/><path class="cls-9" d="M435.63,177.53a3.13,3.13,0,0,1-1.41-1.38c.92-.25,1.21-.88,2.2-1.1a6.45,6.45,0,0,1,3,.22c1.28.42,2.1,1.11,2.17,2s-.53,1.19-1.85,1.61a2.63,2.63,0,0,1-2.2.09,14.94,14.94,0,0,1-1.95-.86Z"/></g><path class="cls-10" d="M181.55,164.18l2-34.8S298.82,31.83,464.3,8.35l22.87,24.44L502.8,57.51s-141.28,75-232.49,196.93L281,264l98.86-55.71L477,226l-1.77,28.4S359,393.46,228,487.82h-92.9L103.72,282.31l-6.09-40.49,56.29-65.74Z"/><path class="cls-11" d="M753.54,104.7s-86.1,17.59-189.69,118.38l-39.73,15.09s191,45.93,258,78.6l-11.42,32.32,62.94,59.13s-32.38,117-104,203.34l13.15,22s99.25-18.2,146.49-56.3l28.37-122.65L900.57,447S890.76,188.21,753.54,104.7Z"/><path class="cls-12" d="M362.36,737.75l68.47-62.13L614.3,686l-17.89,45.63,32.18,9.23S574.45,804.75,384.65,786Z"/><path class="cls-13" d="M279.75,769.3v25.26L369.47,832l68.45-12.39S336.81,805.82,279.75,769.3Z"/><path class="cls-14" d="M580.65,807.28l28.49-38,77.13-58.4,60.85,4.2,30.12,30.54s-51.16,74.94-165.11,121.41Z"/><path class="cls-15" d="M588.74,165.13s37-99.21,64.57-132.34c0,0,58.34-.53,87.43,41.28l-33.57,32.8S660,109.29,588.74,165.13Z"/><path class="cls-16" d="M464.3,8.35S308.69,132.82,250.39,248.08l-60.3,80.23,189.81-120L477,226S313.31,400.84,202.48,472.23l-67.35,15.59-37.5-246,61.3-66.18,8.43,78.8,16.2-99.68V129.38S298.82,27.35,464.3,8.35Z"/><path class="cls-17" d="M612.13,867.05l68.35-101.43,96.76-20S733.5,820.08,612.13,867.05Z"/><path class="cls-17" d="M751.53,631.75,873.62,481.68l44-27.1L889.27,577.23S841.89,623,751.53,631.75Z"/><polygon class="cls-18" points="680.48 674.07 760.27 637.79 784.78 654.39 751.53 691.83 678.95 700.76 680.48 674.07"/><polygon class="cls-17" points="784.78 654.39 703.09 681.06 678.95 700.76 751.53 691.83 784.78 654.39"/><path class="cls-19" d="M270.31,254.44l-80.22,73.87,60.3-80.23S351.29,81.61,464.3,8.35L530.22,54.5S356.14,141.94,270.31,254.44Z"/><path class="cls-19" d="M477,226l-1.18,19L506,248.08S368.69,408.64,238.73,489.15L228,487.82Z"/><path class="cls-19" d="M588.74,165.13l129-50.4-10.53-7.86,33.57-32.8S664.08,75.66,588.74,165.13Z"/><polygon class="cls-19" points="782.09 316.77 841.1 254.44 703.76 264.02 538.97 241.82 777.24 328.31 782.09 316.77"/><polygon class="cls-20" points="403.9 397.14 558.47 289.85 714.4 315 714.4 369.12 580.05 443.74 403.9 397.14"/><polygon class="cls-21" points="379.9 461.35 405.68 447.04 471.67 454.19 464.44 481.68 421.59 489.15 379.9 461.35"/><polygon class="cls-16" points="403.9 397.14 502.8 404.49 597.55 298.97 558.47 289.85 403.9 397.14"/><polygon class="cls-22" points="379.9 461.35 412.09 475.9 438.06 461.35 471.67 454.19 405.68 447.04 379.9 461.35"/><polygon class="cls-19" points="502.8 404.49 580.65 427.43 714.4 369.12 608.6 462.12 403.9 397.14 502.8 404.49"/><polygon class="cls-19" points="421.59 489.15 412.09 475.9 438.06 461.35 471.67 454.19 485.37 489.15 421.59 489.15"/><polygon class="cls-17" points="893.97 383.55 852.61 431.83 817.59 489.15 893.97 431.83 893.97 383.55"/><path class="cls-23" d="M619.78,740.38l-23.37-8.73L614.3,686l-174,3.43-67,56L384.65,786s68.09,20.56,131.77,11S619.78,740.38,619.78,740.38Z"/><polygon class="cls-22" points="430.83 675.62 440.28 689.45 373.31 745.41 362.36 737.75 430.83 675.62"/><polygon class="cls-19" points="770.67 349.09 869.2 383.74 833.61 408.22 770.67 349.09"/><path class="cls-24" d="M135.52,452.53l-.79-1.58c1.64-.83,164.78-82.66,219-123.35,49.59-37.21,68-67.78,70.88-72.83l-39.18-23.13-268,138.26-.82-1.58L385.46,229.61,427,254.1l-.38.74c-.16.33-17.36,33.33-71.79,74.19S137.17,451.71,135.52,452.53Z"/><polygon class="cls-24" points="127.77 437.66 126.95 436.08 236.42 379.51 331.91 289.96 322.07 283.33 119.12 381.04 118.34 379.44 322.22 281.29 334.75 289.73 333.94 290.5 237.35 381.03 127.77 437.66"/><polygon class="cls-24" points="115.05 347.21 113.72 346.05 274.15 161.97 425.17 14.66 426.4 15.93 275.44 163.19 115.05 347.21"/><polygon class="cls-24" points="107.42 327.59 153.51 180.81 155.2 181.35 112.46 317.5 201.76 192.51 332.66 43.22 333.99 44.39 203.14 193.62 107.42 327.59"/><polygon class="cls-24" points="855.76 238.96 735.13 235.89 602.42 212.52 602.42 201.39 602.87 201.14 717.11 136 784.67 127.66 784.89 129.42 717.5 137.75 604.2 202.42 604.2 211.03 735.3 234.13 855.8 237.19 855.76 238.96"/><polygon class="cls-24" points="740.77 218.49 663.86 209.09 663.86 201.04 664.18 200.78 724.95 150.34 801.02 144.6 801.15 146.37 725.64 152.07 665.63 201.88 665.63 207.52 740.86 216.72 845.75 214.5 845.79 216.28 740.77 218.49"/><polygon class="cls-24" points="889.04 366.13 845.12 354.22 844.95 353.82 828.3 314.87 866.21 267.52 867.6 268.63 830.35 315.14 846.41 352.73 889.5 364.4 889.04 366.13"/><polygon class="cls-24" points="888.95 356.34 866.18 347.3 866.06 346.9 858.33 322.42 858.54 322.08 874.72 295.5 876.23 296.43 860.27 322.66 867.62 345.96 889.6 354.69 888.95 356.34"/><polygon class="cls-24" points="404.1 398.01 403.71 396.27 538.78 365.93 714.16 314.15 714.65 315.86 539.22 367.65 404.1 398.01"/><polygon class="cls-24" points="580.71 444.35 579.4 443.14 612.48 407.47 713.93 342.14 714.88 343.63 613.53 408.91 580.71 444.35"/><polygon class="cls-24" points="376.72 743.52 376.54 741.76 600.71 719.57 600.89 721.33 376.72 743.52"/><polygon class="cls-24" points="612.11 692.45 464.29 689.86 464.32 688.09 612.14 690.67 612.11 692.45"/><path class="cls-25" d="M117.31,590v48.79L146.52,674s72.9,29.6,128.3,26.72l-21.7-42.68,11-19.27Z"/><polygon class="cls-26" points="109.94 551.01 137.39 566.42 210.93 566.42 226.03 540.35 125.04 529.11 109.94 551.01"/><polygon class="cls-16" points="109.94 551.01 146.53 556.85 212.72 551.01 226.03 540.35 125.04 529.11 109.94 551.01"/><polygon class="cls-16" points="117.31 590.02 117.31 638.81 160.2 665.05 226.03 654.42 264.16 638.81 117.31 590.02"/><polygon class="cls-19" points="226.03 540.35 212.72 551.01 137.39 566.42 220.49 573.68 226.03 540.35"/><polygon class="cls-19" points="253.12 658.08 202.48 675.62 274.82 700.76 264.16 658.08 264.16 638.81 253.12 658.08"/></g></g></svg>