<svg id="Capa_1" data-name="Capa 1" xmlns="http://www.w3.org/2000/svg" xmlns:xlink="http://www.w3.org/1999/xlink" viewBox="0 0 60.69 60"><defs><style>.cls-1{fill:url(#Degradado_sin_nombre_2);}.cls-2{fill:#fff;}</style><linearGradient id="Degradado_sin_nombre_2" x1="11.94" y1="48.4" x2="52.23" y2="8.11" gradientUnits="userSpaceOnUse"><stop offset="0" stop-color="#33fdd8"/><stop offset="0.5" stop-color="#7a4aff"/><stop offset="1" stop-color="#45108a"/></linearGradient></defs><path class="cls-1" d="M54.25,10.12l-5.72,6.72A32.24,32.24,0,0,0,43.42,25a41,41,0,0,0-2.05,6.11C39.81,37.28,37.81,43,35.48,45.34A14.48,14.48,0,0,1,15,24.86c2.33-2.33,8.07-4.33,14.22-5.88a41.79,41.79,0,0,0,6.11-2.06,32.24,32.24,0,0,0,8.17-5.11L50.22,6.1C32.42,18,18,15.77,11.94,21.8A18.81,18.81,0,0,0,38.55,48.4C44.57,42.38,42.31,27.93,54.25,10.12Z"/><path class="cls-2" d="M33.72,26.62a12,12,0,1,0,0,17A12,12,0,0,0,33.72,26.62Z"/></svg>