<svg width="21" height="21" viewBox="0 0 21 21" fill="none" xmlns="http://www.w3.org/2000/svg">
<path d="M10.6754 0.253662C5.15303 0.253662 0.675354 4.73134 0.675354 10.2537C0.675354 15.776 5.15303 20.2537 10.6754 20.2537C16.1977 20.2537 20.6754 15.776 20.6754 10.2537C20.6754 4.73134 16.1977 0.253662 10.6754 0.253662ZM15.4812 7.79161C15.4879 7.89652 15.4879 8.00589 15.4879 8.11304C15.4879 11.3898 12.9923 15.1644 8.43205 15.1644C7.0258 15.1644 5.72223 14.7559 4.62401 14.0528C4.82491 14.0751 5.01687 14.084 5.22223 14.084C6.38294 14.084 7.44991 13.6912 8.30035 13.026C7.21107 13.0037 6.29589 12.2894 5.98339 11.3072C6.36509 11.363 6.70884 11.363 7.10169 11.2626C6.54081 11.1486 6.03668 10.844 5.67494 10.4005C5.31321 9.95697 5.11617 9.40189 5.11732 8.82956V8.7983C5.44544 8.98357 5.8316 9.09741 6.23562 9.11304C5.89598 8.88669 5.61745 8.58003 5.42471 8.22025C5.23197 7.86047 5.13099 7.45869 5.13071 7.05054C5.13071 6.58848 5.25125 6.16661 5.46777 5.80054C6.09032 6.56691 6.86716 7.19371 7.74782 7.64019C8.62848 8.08667 9.59323 8.34284 10.5794 8.39206C10.2289 6.70679 11.4879 5.34295 13.0012 5.34295C13.7155 5.34295 14.3584 5.64206 14.8115 6.1242C15.3718 6.01929 15.9075 5.80947 16.3852 5.52822C16.1999 6.10188 15.8115 6.58625 15.2959 6.89205C15.7959 6.83848 16.278 6.70009 16.7245 6.50589C16.3874 7.00143 15.9655 7.44116 15.4812 7.79161V7.79161Z" fill="white"/>
</svg>
