<svg id="Capa_1" data-name="Capa 1" xmlns="http://www.w3.org/2000/svg" xmlns:xlink="http://www.w3.org/1999/xlink" viewBox="0 0 284.21 60"><defs><style>.cls-1{fill:url(#Degradado_sin_nombre_2);}.cls-2{fill:#fff;}</style><linearGradient id="Degradado_sin_nombre_2" x1="12.41" y1="48.52" x2="52.7" y2="8.23" gradientUnits="userSpaceOnUse"><stop offset="0" stop-color="#33fdd8"/><stop offset="0.5" stop-color="#7a4aff"/><stop offset="1" stop-color="#45108a"/></linearGradient></defs><path class="cls-1" d="M54.71,10.24,49,17a32.18,32.18,0,0,0-5.11,8.16,41,41,0,0,0-2.06,6.11C40.28,37.4,38.28,43.13,36,45.46A14.48,14.48,0,0,1,15.47,25c2.33-2.33,8.06-4.33,14.22-5.88A41,41,0,0,0,35.8,17,32.18,32.18,0,0,0,44,11.93l6.73-5.71c-17.81,11.93-32.26,9.67-38.28,15.7A18.81,18.81,0,0,0,39,48.52C45,42.5,42.78,28.05,54.71,10.24Z"/><path class="cls-2" d="M34.18,26.75a12,12,0,1,0,0,17A12,12,0,0,0,34.18,26.75Z"/><path class="cls-2" d="M93,41.22a7.5,7.5,0,0,1-3.17-2.4,6.32,6.32,0,0,1-1.2-3.71h5.14a3.19,3.19,0,0,0,1,2.27,3.75,3.75,0,0,0,2.59.84,4.06,4.06,0,0,0,2.63-.79,2.52,2.52,0,0,0,1-2,2.3,2.3,0,0,0-.65-1.7,4.48,4.48,0,0,0-1.63-1.06,27.92,27.92,0,0,0-2.69-.85,27.69,27.69,0,0,1-3.78-1.32,6.51,6.51,0,0,1-2.5-2A5.49,5.49,0,0,1,88.74,25a6.2,6.2,0,0,1,1.07-3.61,6.72,6.72,0,0,1,3-2.35,11.14,11.14,0,0,1,4.38-.82,9.66,9.66,0,0,1,6,1.76,6.4,6.4,0,0,1,2.56,4.89h-5.28a2.66,2.66,0,0,0-1-2,4.06,4.06,0,0,0-2.59-.78,3.38,3.38,0,0,0-2.25.7,2.47,2.47,0,0,0-.83,2,2.1,2.1,0,0,0,.63,1.56,5,5,0,0,0,1.57,1c.63.25,1.52.55,2.66.88a28.3,28.3,0,0,1,3.8,1.34,6.79,6.79,0,0,1,2.54,2A5.46,5.46,0,0,1,106,35.08a6.5,6.5,0,0,1-1,3.47,7,7,0,0,1-2.92,2.55,10,10,0,0,1-4.55,1A11.58,11.58,0,0,1,93,41.22Z"/><path class="cls-2" d="M128.76,18.18v3.87h-6.37v20h-4.8v-20h-6.37V18.18Z"/><path class="cls-2" d="M176.59,40.52a11.64,11.64,0,0,1-6.1-10.42,11.63,11.63,0,0,1,6.1-10.38,13.15,13.15,0,0,1,12.35,0A11.52,11.52,0,0,1,193.36,24,11.72,11.72,0,0,1,195,30.1a11.79,11.79,0,0,1-1.63,6.16,11.51,11.51,0,0,1-4.44,4.26,13.11,13.11,0,0,1-12.33,0Zm10-3.59a6.62,6.62,0,0,0,2.57-2.72,8.83,8.83,0,0,0,.92-4.11,8.72,8.72,0,0,0-.92-4.09,6.6,6.6,0,0,0-2.57-2.69,8.27,8.27,0,0,0-7.62,0A6.52,6.52,0,0,0,176.35,26a8.6,8.6,0,0,0-.93,4.09,8.71,8.71,0,0,0,.93,4.11,6.54,6.54,0,0,0,2.59,2.72,8.12,8.12,0,0,0,7.62,0Z"/><polygon class="cls-2" points="74.87 18.16 69.28 18.16 60.69 42.07 65.72 42.07 68.61 33.69 68.6 33.69 72.06 23.71 75.52 33.69 75.51 33.69 78.4 42.07 83.47 42.07 74.87 18.16"/><polygon class="cls-2" points="269.63 42.07 264.05 42.07 255.45 18.16 260.49 18.16 263.37 26.55 263.36 26.55 266.82 36.53 270.29 26.55 270.28 26.55 273.16 18.16 278.23 18.16 269.63 42.07"/><path class="cls-2" d="M229.6,23.84a10.52,10.52,0,0,0-4.42-4.19,14.27,14.27,0,0,0-6.63-1.47H210.2V42.06h8.35a14.27,14.27,0,0,0,6.63-1.47,10.58,10.58,0,0,0,4.42-4.16,12.27,12.27,0,0,0,1.56-6.28A12.49,12.49,0,0,0,229.6,23.84Zm-5.39,12.09A7.88,7.88,0,0,1,218.38,38H215V22.22h3.39a7.78,7.78,0,0,1,5.83,2.1,8,8,0,0,1,2,5.83A7.79,7.79,0,0,1,224.21,35.93Z"/><rect class="cls-2" x="200.19" y="18.18" width="4.8" height="23.87"/><path class="cls-2" d="M147.84,38.16h-9.08V32.4h8.05V28.61h-8.05V22.15h17.45a4.08,4.08,0,0,1,2.91.91,3.32,3.32,0,0,1,1,2.54,3.5,3.5,0,0,1-1,2.62,4,4,0,0,1-2.91.94h0a10.27,10.27,0,0,1-2.76-.38l-.63-.17,1.27,2.52,5.64,10.93h5.55l-5.72-9.68a7,7,0,0,0,4.08-2.62,7.4,7.4,0,0,0,.39-8,6.8,6.8,0,0,0-2.93-2.63,10.45,10.45,0,0,0-4.72-1H134V42.06h13.88Z"/><path class="cls-2" d="M241.16,22.08v6h8.06v3.79h-8.06v6.32h9.08v3.9H236.37V18.18h13.87v3.9Z"/></svg>