<svg width="21" height="21" viewBox="0 0 21 21" fill="none" xmlns="http://www.w3.org/2000/svg">
<g clip-path="url(#clip0_16_281)">
<path d="M10.9561 0.653564C5.65414 0.653564 1.35614 4.95156 1.35614 10.2536C1.35614 15.5556 5.65414 19.8536 10.9561 19.8536C16.2581 19.8536 20.5561 15.5556 20.5561 10.2536C20.5561 4.95156 16.2581 0.653564 10.9561 0.653564ZM8.60614 14.2326H6.66214V7.97656H8.60614V14.2326ZM7.62214 7.20856C7.00814 7.20856 6.61114 6.77356 6.61114 6.23556C6.61114 5.68656 7.02014 5.26456 7.64714 5.26456C8.27414 5.26456 8.65814 5.68656 8.67014 6.23556C8.67014 6.77356 8.27414 7.20856 7.62214 7.20856ZM15.7061 14.2326H13.7621V10.7656C13.7621 9.95856 13.4801 9.41056 12.7771 9.41056C12.2401 9.41056 11.9211 9.78157 11.7801 10.1386C11.7281 10.2656 11.7151 10.4456 11.7151 10.6246V14.2316H9.77014V9.97157C9.77014 9.19057 9.74514 8.53756 9.71914 7.97556H11.4081L11.4971 8.84456H11.5361C11.7921 8.43656 12.4191 7.83456 13.4681 7.83456C14.7471 7.83456 15.7061 8.69156 15.7061 10.5336V14.2326V14.2326Z" fill="white"/>
</g>
<defs>
<clipPath id="clip0_16_281">
<rect width="20" height="20" fill="white" transform="translate(0.956116 0.253662)"/>
</clipPath>
</defs>
</svg>
