<svg xmlns="http://www.w3.org/2000/svg" xmlns:xlink="http://www.w3.org/1999/xlink" viewBox="0 0 1000 373.13"><defs><style>.cls-1,.cls-10,.cls-6,.cls-7,.cls-8,.cls-9{fill:none;}.cls-2{isolation:isolate;}.cls-3{fill:#ff008b;}.cls-3,.cls-4,.cls-5{fill-rule:evenodd;}.cls-4{fill:#ff8080;opacity:0.75;}.cls-5{fill:#ffa600;}.cls-10,.cls-6,.cls-7,.cls-8,.cls-9{stroke-miterlimit:10;stroke-width:1.5px;}.cls-6{stroke:url(#Degradado_sin_nombre_65);}.cls-7{stroke:url(#Degradado_sin_nombre_65-2);}.cls-8{stroke:url(#Degradado_sin_nombre_65-3);}.cls-9{stroke:url(#Degradado_sin_nombre_65-4);}.cls-10{stroke:url(#Degradado_sin_nombre_65-5);}.cls-11,.cls-183,.cls-185,.cls-201,.cls-202,.cls-203,.cls-204,.cls-208,.cls-209,.cls-210,.cls-211,.cls-212,.cls-213,.cls-214,.cls-216,.cls-217,.cls-219,.cls-220,.cls-221,.cls-222,.cls-223,.cls-224,.cls-33,.cls-34,.cls-36,.cls-45{mix-blend-mode:screen;}.cls-11{fill:url(#Degradado_sin_nombre_64);}.cls-12{fill:url(#Áåçûìÿííûé_ãðàäèåíò_232);}.cls-13,.cls-193,.cls-205,.cls-210,.cls-215,.cls-216,.cls-217,.cls-32,.cls-33,.cls-34,.cls-38,.cls-44,.cls-49,.cls-52{opacity:0.5;}.cls-13,.cls-193,.cls-205,.cls-215,.cls-31,.cls-32,.cls-38,.cls-44,.cls-49,.cls-50,.cls-52{mix-blend-mode:multiply;}.cls-13{fill:url(#Áåçûìÿííûé_ãðàäèåíò_237);}.cls-14{fill:url(#Áåçûìÿííûé_ãðàäèåíò_54);}.cls-15{fill:url(#Áåçûìÿííûé_ãðàäèåíò_37);}.cls-16{fill:url(#Áåçûìÿííûé_ãðàäèåíò_272);}.cls-17{fill:url(#Áåçûìÿííûé_ãðàäèåíò_24);}.cls-18{fill:url(#Áåçûìÿííûé_ãðàäèåíò_13);}.cls-19{fill:url(#Áåçûìÿííûé_ãðàäèåíò_24-2);}.cls-20{fill:url(#Áåçûìÿííûé_ãðàäèåíò_43);}.cls-21{fill:url(#Áåçûìÿííûé_ãðàäèåíò_24-3);}.cls-22{fill:url(#Áåçûìÿííûé_ãðàäèåíò_43-2);}.cls-23{fill:url(#Áåçûìÿííûé_ãðàäèåíò_35);}.cls-24{fill:url(#Áåçûìÿííûé_ãðàäèåíò_35-2);}.cls-25{fill:#00b369;}.cls-26{fill:url(#Áåçûìÿííûé_ãðàäèåíò_35-3);}.cls-27{fill:url(#Áåçûìÿííûé_ãðàäèåíò_35-4);}.cls-28{fill:#006a69;}.cls-29{fill:url(#Áåçûìÿííûé_ãðàäèåíò_18);}.cls-30{fill:url(#Áåçûìÿííûé_ãðàäèåíò_35-5);}.cls-211,.cls-31,.cls-36{opacity:0.3;}.cls-31{fill:url(#Áåçûìÿííûé_ãðàäèåíò_71);}.cls-32{fill:url(#Áåçûìÿííûé_ãðàäèåíò_70);}.cls-33{fill:url(#Áåçûìÿííûé_ãðàäèåíò_80);}.cls-34{fill:url(#Áåçûìÿííûé_ãðàäèåíò_80-2);}.cls-35{fill:#fff;}.cls-36{fill:url(#Áåçûìÿííûé_ãðàäèåíò_105);}.cls-37{fill:url(#Áåçûìÿííûé_ãðàäèåíò_60);}.cls-38{fill:url(#Áåçûìÿííûé_ãðàäèåíò_71-2);}.cls-39{fill:#5b254e;}.cls-40{fill:url(#Áåçûìÿííûé_ãðàäèåíò_18-2);}.cls-41{fill:url(#Áåçûìÿííûé_ãðàäèåíò_18-3);}.cls-42{fill:url(#Áåçûìÿííûé_ãðàäèåíò_18-4);}.cls-43{fill:#985965;}.cls-44{fill:url(#Áåçûìÿííûé_ãðàäèåíò_71-3);}.cls-45{fill:url(#Áåçûìÿííûé_ãðàäèåíò_182);}.cls-46{fill:url(#Áåçûìÿííûé_ãðàäèåíò_138);}.cls-47{fill:url(#Áåçûìÿííûé_ãðàäèåíò_214);}.cls-48{fill:url(#Áåçûìÿííûé_ãðàäèåíò_127);}.cls-49{fill:url(#Áåçûìÿííûé_ãðàäèåíò_108);}.cls-208,.cls-212,.cls-213,.cls-50{opacity:0.2;}.cls-50{fill:url(#Áåçûìÿííûé_ãðàäèåíò_108-2);}.cls-51{fill:url(#Áåçûìÿííûé_ãðàäèåíò_127-2);}.cls-52{fill:url(#Áåçûìÿííûé_ãðàäèåíò_108-3);}.cls-53{clip-path:url(#clip-path);}.cls-54{fill:#270579;}.cls-55{fill:#27067a;}.cls-56{fill:#27077b;}.cls-57{fill:#27087b;}.cls-58{fill:#27097c;}.cls-59{fill:#270a7d;}.cls-60{fill:#270b7e;}.cls-61{fill:#270c7e;}.cls-62{fill:#270d7f;}.cls-63{fill:#270e80;}.cls-64{fill:#270f81;}.cls-65{fill:#271082;}.cls-66{fill:#271182;}.cls-67{fill:#271283;}.cls-68{fill:#271384;}.cls-69{fill:#271485;}.cls-70{fill:#271585;}.cls-71{fill:#271686;}.cls-72{fill:#271887;}.cls-73{fill:#271988;}.cls-74{fill:#271a89;}.cls-75{fill:#271b89;}.cls-76{fill:#271c8a;}.cls-77{fill:#271d8b;}.cls-78{fill:#271e8c;}.cls-79{fill:#271f8c;}.cls-80{fill:#27208d;}.cls-81{fill:#27218e;}.cls-82{fill:#27228f;}.cls-83{fill:#272390;}.cls-84{fill:#272490;}.cls-85{fill:#272591;}.cls-86{fill:#272692;}.cls-87{fill:#272793;}.cls-88{fill:#272893;}.cls-89{fill:#272994;}.cls-90{fill:#272a95;}.cls-91{fill:#282a95;}.cls-92{fill:#292b96;}.cls-93{fill:#2a2b96;}.cls-94{fill:#2b2b97;}.cls-95{fill:#2c2b97;}.cls-96{fill:#2d2c98;}.cls-97{fill:#2e2c98;}.cls-98{fill:#2f2c98;}.cls-99{fill:#302d99;}.cls-100{fill:#312d99;}.cls-101{fill:#322d9a;}.cls-102{fill:#332d9a;}.cls-103{fill:#342e9a;}.cls-104{fill:#352e9b;}.cls-105{fill:#362e9b;}.cls-106{fill:#372f9c;}.cls-107{fill:#382f9c;}.cls-108{fill:#392f9d;}.cls-109{fill:#3a2f9d;}.cls-110{fill:#3b309d;}.cls-111{fill:#3c309e;}.cls-112{fill:#3d309e;}.cls-113{fill:#3e319f;}.cls-114{fill:#3f319f;}.cls-115{fill:#40319f;}.cls-116{fill:#4131a0;}.cls-117{fill:#4232a0;}.cls-118{fill:#4332a1;}.cls-119{fill:#4432a1;}.cls-120{fill:#4533a2;}.cls-121{fill:#4633a2;}.cls-122{fill:#4733a2;}.cls-123{fill:#4833a3;}.cls-124{fill:#4934a3;}.cls-125{fill:#4a34a4;}.cls-126{fill:#4b34a4;}.cls-127{fill:#4c35a4;}.cls-128{fill:#4d35a5;}.cls-129{fill:#4e35a5;}.cls-130{fill:#4f35a6;}.cls-131{fill:#5036a6;}.cls-132{fill:#5236a7;}.cls-133{fill:#5336a7;}.cls-134{fill:#5437a7;}.cls-135{fill:#5537a8;}.cls-136{fill:#5637a8;}.cls-137{fill:#5737a9;}.cls-138{fill:#5838a9;}.cls-139{fill:#5938a9;}.cls-140{fill:#5a38aa;}.cls-141{fill:#5b39aa;}.cls-142{fill:#5c39ab;}.cls-143{fill:#5d39ab;}.cls-144{fill:#5e39ac;}.cls-145{fill:#5f3aac;}.cls-146{fill:#603aac;}.cls-147{fill:#613aad;}.cls-148{fill:#623bad;}.cls-149{fill:#633bae;}.cls-150{fill:#643bae;}.cls-151{fill:#653bae;}.cls-152{fill:#663caf;}.cls-153{fill:#673caf;}.cls-154{fill:#683cb0;}.cls-155{fill:#693db0;}.cls-156{fill:#6a3db1;}.cls-157{fill:#6b3db1;}.cls-158{fill:#6c3db1;}.cls-159{fill:#6d3eb2;}.cls-160{fill:#6e3eb2;}.cls-161{fill:#6f3eb3;}.cls-162{fill:#703fb3;}.cls-163{fill:#713fb3;}.cls-164{fill:#723fb4;}.cls-165{fill:#733fb4;}.cls-166{fill:#7440b5;}.cls-167{fill:#7540b5;}.cls-168{fill:#7640b6;}.cls-169{fill:#7741b6;}.cls-170{fill:#7841b6;}.cls-171{fill:#7941b7;}.cls-172{fill:#7a41b7;}.cls-173{fill:#7b42b8;}.cls-174{fill:#7c42b8;}.cls-175{fill:url(#Áåçûìÿííûé_ãðàäèåíò_111);}.cls-176{fill:url(#Áåçûìÿííûé_ãðàäèåíò_8);}.cls-177{fill:url(#Áåçûìÿííûé_ãðàäèåíò_152);}.cls-178{fill:url(#Áåçûìÿííûé_ãðàäèåíò_2);}.cls-179{fill:url(#Áåçûìÿííûé_ãðàäèåíò_111-2);}.cls-180{fill:url(#Áåçûìÿííûé_ãðàäèåíò_8-2);}.cls-181{fill:url(#Áåçûìÿííûé_ãðàäèåíò_152-2);}.cls-182{fill:url(#Áåçûìÿííûé_ãðàäèåíò_2-2);}.cls-183{fill:url(#Áåçûìÿííûé_ãðàäèåíò_343);}.cls-184{fill:url(#Áåçûìÿííûé_ãðàäèåíò_291);}.cls-185{fill:url(#Áåçûìÿííûé_ãðàäèåíò_343-2);}.cls-186{fill:url(#Áåçûìÿííûé_ãðàäèåíò_111-3);}.cls-187{fill:url(#Áåçûìÿííûé_ãðàäèåíò_115);}.cls-188{fill:url(#Áåçûìÿííûé_ãðàäèåíò_2-3);}.cls-189{fill:url(#Áåçûìÿííûé_ãðàäèåíò_115-2);}.cls-190{fill:url(#Áåçûìÿííûé_ãðàäèåíò_2-4);}.cls-191{fill:url(#Áåçûìÿííûé_ãðàäèåíò_147);}.cls-192{fill:url(#Áåçûìÿííûé_ãðàäèåíò_196);}.cls-194{fill:url(#Áåçûìÿííûé_ãðàäèåíò_127-3);}.cls-195{fill:url(#Áåçûìÿííûé_ãðàäèåíò_74);}.cls-196{fill:url(#Áåçûìÿííûé_ãðàäèåíò_74-2);}.cls-197{fill:url(#Áåçûìÿííûé_ãðàäèåíò_74-3);}.cls-198{fill:url(#Áåçûìÿííûé_ãðàäèåíò_74-4);}.cls-199{fill:url(#Áåçûìÿííûé_ãðàäèåíò_74-5);}.cls-200{fill:url(#Áåçûìÿííûé_ãðàäèåíò_74-6);}.cls-201{fill:url(#Áåçûìÿííûé_ãðàäèåíò_99);}.cls-202{fill:url(#Áåçûìÿííûé_ãðàäèåíò_99-2);}.cls-203{fill:url(#Áåçûìÿííûé_ãðàäèåíò_99-3);}.cls-204{fill:url(#Áåçûìÿííûé_ãðàäèåíò_343-3);}.cls-205{fill:url(#Áåçûìÿííûé_ãðàäèåíò_108-4);}.cls-206{fill:url(#Áåçûìÿííûé_ãðàäèåíò_127-4);}.cls-207{fill:url(#Áåçûìÿííûé_ãðàäèåíò_127-5);}.cls-208{fill:url(#Áåçûìÿííûé_ãðàäèåíò_116);}.cls-209{fill:url(#Áåçûìÿííûé_ãðàäèåíò_99-4);}.cls-210{fill:url(#Áåçûìÿííûé_ãðàäèåíò_117);}.cls-211{fill:url(#Áåçûìÿííûé_ãðàäèåíò_117-2);}.cls-212{fill:url(#Áåçûìÿííûé_ãðàäèåíò_116-2);}.cls-213{fill:url(#Áåçûìÿííûé_ãðàäèåíò_116-3);}.cls-214{fill:url(#Áåçûìÿííûé_ãðàäèåíò_99-5);}.cls-215{fill:url(#Áåçûìÿííûé_ãðàäèåíò_108-5);}.cls-216{fill:url(#Áåçûìÿííûé_ãðàäèåíò_116-4);}.cls-217{fill:url(#Áåçûìÿííûé_ãðàäèåíò_117-3);}.cls-218{fill:url(#Áåçûìÿííûé_ãðàäèåíò_257);}.cls-219{fill:url(#Degradado_sin_nombre_64-2);}.cls-220{fill:url(#Degradado_sin_nombre_61);}.cls-221{opacity:0.83;fill:url(#Áåçûìÿííûé_ãðàäèåíò_117-4);}.cls-222{fill:url(#Áåçûìÿííûé_ãðàäèåíò_99-6);}.cls-223,.cls-224{opacity:0.85;}.cls-223{fill:url(#Degradado_sin_nombre_53);}.cls-224{fill:url(#Degradado_sin_nombre_53-2);}</style><linearGradient id="Degradado_sin_nombre_65" x1="13.06" y1="293.05" x2="756.5" y2="293.05" gradientUnits="userSpaceOnUse"><stop offset="0" stop-color="#33fdd8"/><stop offset="1" stop-color="#7a4aff"/></linearGradient><linearGradient id="Degradado_sin_nombre_65-2" x1="50.16" y1="293.05" x2="719.4" y2="293.05" xlink:href="#Degradado_sin_nombre_65"/><linearGradient id="Degradado_sin_nombre_65-3" x1="83.54" y1="293.05" x2="686.01" y2="293.05" xlink:href="#Degradado_sin_nombre_65"/><linearGradient id="Degradado_sin_nombre_65-4" x1="113.59" y1="293.05" x2="655.96" y2="293.05" xlink:href="#Degradado_sin_nombre_65"/><linearGradient id="Degradado_sin_nombre_65-5" x1="140.64" y1="293.05" x2="628.92" y2="293.05" xlink:href="#Degradado_sin_nombre_65"/><radialGradient id="Degradado_sin_nombre_64" cx="-719.81" cy="-389" r="3.61" gradientTransform="matrix(0, 39.8, -93.94, 0, -36092.55, 28797.44)" gradientUnits="userSpaceOnUse"><stop offset="0" stop-color="#006bff"/><stop offset="0.06" stop-color="#1276ff" stop-opacity="0.93"/><stop offset="0.33" stop-color="#65a6ff" stop-opacity="0.6"/><stop offset="0.56" stop-color="#a7ccff" stop-opacity="0.34"/><stop offset="0.76" stop-color="#d7e8ff" stop-opacity="0.16"/><stop offset="0.91" stop-color="#f4f9ff" stop-opacity="0.04"/><stop offset="1" stop-color="#fff" stop-opacity="0"/></radialGradient><linearGradient id="Áåçûìÿííûé_ãðàäèåíò_232" x1="456.72" y1="181.07" x2="456.72" y2="24.25" gradientUnits="userSpaceOnUse"><stop offset="0" stop-color="orange"/><stop offset="1" stop-color="#ffba56"/></linearGradient><linearGradient id="Áåçûìÿííûé_ãðàäèåíò_237" x1="434.4" y1="168.41" x2="434.4" y2="95.94" gradientUnits="userSpaceOnUse"><stop offset="0" stop-color="#c228a9"/><stop offset="1" stop-color="#e5dcf4"/></linearGradient><linearGradient id="Áåçûìÿííûé_ãðàäèåíò_54" x1="428.31" y1="178.12" x2="428.31" y2="97.33" gradientUnits="userSpaceOnUse"><stop offset="0" stop-color="#791e44"/><stop offset="1" stop-color="#9d547c"/></linearGradient><linearGradient id="Áåçûìÿííûé_ãðàäèåíò_37" x1="464.37" y1="178.12" x2="464.37" y2="95.14" gradientUnits="userSpaceOnUse"><stop offset="0" stop-color="#8b3164"/><stop offset="1" stop-color="#f77554"/></linearGradient><radialGradient id="Áåçûìÿííûé_ãðàäèåíò_272" cx="502.25" cy="387.87" r="10.2" gradientTransform="translate(-6424.1 -5079.57) scale(13.33)" gradientUnits="userSpaceOnUse"><stop offset="0" stop-color="#a26d9f"/><stop offset="0.65" stop-color="#4436a4"/><stop offset="1" stop-color="#401e90"/></radialGradient><linearGradient id="Áåçûìÿííûé_ãðàäèåíò_24" x1="495.57" y1="167.4" x2="495.57" y2="127.3" gradientUnits="userSpaceOnUse"><stop offset="0" stop-color="#0c7754"/><stop offset="1" stop-color="#007486"/></linearGradient><linearGradient id="Áåçûìÿííûé_ãðàäèåíò_13" x1="497.31" y1="131.73" x2="497.31" y2="60.15" gradientUnits="userSpaceOnUse"><stop offset="0" stop-color="#7fc729"/><stop offset="1" stop-color="#00ba86"/></linearGradient><linearGradient id="Áåçûìÿííûé_ãðàäèåíò_24-2" x1="530.19" y1="112.1" x2="530.19" y2="85.92" xlink:href="#Áåçûìÿííûé_ãðàäèåíò_24"/><linearGradient id="Áåçûìÿííûé_ãðàäèåíò_43" x1="531.49" y1="111.17" x2="531.49" y2="88.16" gradientUnits="userSpaceOnUse"><stop offset="0" stop-color="#4c4862"/><stop offset="1" stop-color="#1f345a"/></linearGradient><linearGradient id="Áåçûìÿííûé_ãðàäèåíò_24-3" x1="490.33" y1="113.25" x2="490.33" y2="82.99" xlink:href="#Áåçûìÿííûé_ãðàäèåíò_24"/><linearGradient id="Áåçûìÿííûé_ãðàäèåíò_43-2" x1="490.98" y1="112.35" x2="490.98" y2="86.26" xlink:href="#Áåçûìÿííûé_ãðàäèåíò_43"/><linearGradient id="Áåçûìÿííûé_ãðàäèåíò_35" x1="494.03" y1="112.35" x2="494.03" y2="86.26" gradientUnits="userSpaceOnUse"><stop offset="0" stop-color="#332f4c"/><stop offset="1" stop-color="#001843"/></linearGradient><linearGradient id="Áåçûìÿííûé_ãðàäèåíò_35-2" x1="531.69" y1="111.13" x2="531.69" y2="88.16" xlink:href="#Áåçûìÿííûé_ãðàäèåíò_35"/><linearGradient id="Áåçûìÿííûé_ãðàäèåíò_35-3" x1="517.55" y1="118.79" x2="517.55" y2="116.65" xlink:href="#Áåçûìÿííûé_ãðàäèåíò_35"/><linearGradient id="Áåçûìÿííûé_ãðàäèåíò_35-4" x1="524.63" y1="118.79" x2="524.63" y2="116.32" xlink:href="#Áåçûìÿííûé_ãðàäèåíò_35"/><linearGradient id="Áåçûìÿííûé_ãðàäèåíò_18" x1="456.66" y1="109.26" x2="471.48" y2="109.26" gradientUnits="userSpaceOnUse"><stop offset="0" stop-color="#33a94c"/><stop offset="1" stop-color="#009d95"/></linearGradient><linearGradient id="Áåçûìÿííûé_ãðàäèåíò_35-5" x1="465.11" y1="114.47" x2="465.11" y2="101.08" xlink:href="#Áåçûìÿííûé_ãðàäèåíò_35"/><linearGradient id="Áåçûìÿííûé_ãðàäèåíò_71" x1="490.58" y1="131.73" x2="490.58" y2="60.66" gradientUnits="userSpaceOnUse"><stop offset="0" stop-color="#a6cfe8"/><stop offset="1" stop-color="#455caf"/></linearGradient><linearGradient id="Áåçûìÿííûé_ãðàäèåíò_70" x1="491.61" y1="139.28" x2="491.61" y2="128.02" gradientUnits="userSpaceOnUse"><stop offset="0" stop-color="#a6cfe8"/><stop offset="1" stop-color="#454f8b"/></linearGradient><linearGradient id="Áåçûìÿííûé_ãðàäèåíò_80" x1="491.5" y1="104.82" x2="491.5" y2="86.25" gradientUnits="userSpaceOnUse"><stop offset="0" stop-color="#004077"/><stop offset="0.19" stop-color="#003767"/><stop offset="0.55" stop-color="#00203c"/><stop offset="1"/></linearGradient><linearGradient id="Áåçûìÿííûé_ãðàäèåíò_80-2" x1="531.7" y1="104.36" x2="531.7" y2="88.16" xlink:href="#Áåçûìÿííûé_ãðàäèåíò_80"/><linearGradient id="Áåçûìÿííûé_ãðàäèåíò_105" x1="501.78" y1="79.07" x2="501.78" y2="60.26" gradientUnits="userSpaceOnUse"><stop offset="0" stop-color="#2f5448"/><stop offset="0.25" stop-color="#26443a"/><stop offset="0.74" stop-color="#0e1a16"/><stop offset="1"/></linearGradient><linearGradient id="Áåçûìÿííûé_ãðàäèåíò_60" x1="507.28" y1="72.5" x2="507.28" y2="48.2" gradientUnits="userSpaceOnUse"><stop offset="0" stop-color="#a82977"/><stop offset="1" stop-color="#d45c74"/></linearGradient><linearGradient id="Áåçûìÿííûé_ãðàäèåíò_71-2" x1="495.75" y1="167.4" x2="495.75" y2="154.29" xlink:href="#Áåçûìÿííûé_ãðàäèåíò_71"/><linearGradient id="Áåçûìÿííûé_ãðàäèåíò_18-2" x1="519.03" y1="171.4" x2="519.03" y2="142.91" xlink:href="#Áåçûìÿííûé_ãðàäèåíò_18"/><linearGradient id="Áåçûìÿííûé_ãðàäèåíò_18-3" x1="572.58" y1="154.29" x2="572.58" y2="139.54" xlink:href="#Áåçûìÿííûé_ãðàäèåíò_18"/><linearGradient id="Áåçûìÿííûé_ãðàäèåíò_18-4" x1="580.49" y1="162.86" x2="580.49" y2="148.03" xlink:href="#Áåçûìÿííûé_ãðàäèåíò_18"/><linearGradient id="Áåçûìÿííûé_ãðàäèåíò_71-3" x1="504.26" y1="63.72" x2="504.26" y2="52.54" xlink:href="#Áåçûìÿííûé_ãðàäèåíò_71"/><radialGradient id="Áåçûìÿííûé_ãðàäèåíò_182" cx="518.63" cy="388.51" r="9.27" gradientTransform="translate(-6424.1 -5079.57) scale(13.33)" gradientUnits="userSpaceOnUse"><stop offset="0"/><stop offset="0.13" stop-color="#000206"/><stop offset="0.3" stop-color="#000815"/><stop offset="0.5" stop-color="#001230"/><stop offset="0.7" stop-color="#002054"/><stop offset="0.92" stop-color="#003183"/><stop offset="1" stop-color="#003997"/></radialGradient><linearGradient id="Áåçûìÿííûé_ãðàäèåíò_138" x1="492.78" y1="168.63" x2="645.77" y2="168.63" gradientUnits="userSpaceOnUse"><stop offset="0" stop-color="#a16bc7"/><stop offset="1" stop-color="#e87cc2"/></linearGradient><radialGradient id="Áåçûìÿííûé_ãðàäèåíò_214" cx="524.63" cy="396.94" r="6.74" gradientTransform="translate(-6424.1 -5079.57) scale(13.33)" gradientUnits="userSpaceOnUse"><stop offset="0" stop-color="#5c28b8"/><stop offset="0.63" stop-color="#1f30bb"/><stop offset="0.98" stop-color="#7021c5"/></radialGradient><linearGradient id="Áåçûìÿííûé_ãðàäèåíò_127" x1="583.37" y1="248.57" x2="583.37" y2="225.41" gradientUnits="userSpaceOnUse"><stop offset="0" stop-color="#2939c7"/><stop offset="1" stop-color="#7448c2"/></linearGradient><linearGradient id="Áåçûìÿííûé_ãðàäèåíò_108" x1="487.74" y1="261.28" x2="487.74" y2="165.37" gradientUnits="userSpaceOnUse"><stop offset="0" stop-color="#2128a9"/><stop offset="1" stop-color="#e5dcf4"/></linearGradient><linearGradient id="Áåçûìÿííûé_ãðàäèåíò_108-2" x1="604.36" y1="247.67" x2="604.36" y2="163.93" xlink:href="#Áåçûìÿííûé_ãðàäèåíò_108"/><linearGradient id="Áåçûìÿííûé_ãðàäèåíò_127-2" x1="570.94" y1="225.73" x2="570.94" y2="166.99" xlink:href="#Áåçûìÿííûé_ãðàäèåíò_127"/><linearGradient id="Áåçûìÿííûé_ãðàäèåíò_108-3" x1="570.94" y1="225.73" x2="570.94" y2="167.03" xlink:href="#Áåçûìÿííûé_ãðàäèåíò_108"/><clipPath id="clip-path"><path id="SVGID" class="cls-1" d="M121,254.56s-9.31-6.7-5.59-17.13c0,0,97.4-73.88,365.12-82,0,0-7.68,76-30,106.74C450.45,262.19,173.28,260.33,121,254.56Z"/></clipPath><linearGradient id="Áåçûìÿííûé_ãðàäèåíò_111" x1="514.8" y1="320.11" x2="514.8" y2="219.95" gradientTransform="matrix(0.98, -0.21, 0.21, 0.98, -93.54, 52.59)" gradientUnits="userSpaceOnUse"><stop offset="0" stop-color="#4755e1"/><stop offset="1" stop-color="#855eca"/></linearGradient><linearGradient id="Áåçûìÿííûé_ãðàäèåíò_8" x1="514.8" y1="317.81" x2="514.8" y2="222.25" gradientTransform="matrix(0.98, -0.21, 0.21, 0.98, -93.54, 52.59)" gradientUnits="userSpaceOnUse"><stop offset="0" stop-color="#5966e4"/><stop offset="1" stop-color="#9574d1"/></linearGradient><linearGradient id="Áåçûìÿííûé_ãðàäèåíò_152" x1="514.82" y1="308.04" x2="514.82" y2="232.61" gradientTransform="matrix(0.98, -0.21, 0.21, 0.98, -93.54, 52.59)" gradientUnits="userSpaceOnUse"><stop offset="0" stop-color="#00a1ff"/><stop offset="1" stop-color="#7784ff"/></linearGradient><linearGradient id="Áåçûìÿííûé_ãðàäèåíò_2" x1="509.99" y1="305.2" x2="509.99" y2="241.05" gradientTransform="matrix(0.98, -0.21, 0.21, 0.98, -93.54, 52.59)" gradientUnits="userSpaceOnUse"><stop offset="0" stop-color="#00fef4"/><stop offset="1" stop-color="#30a7fb"/></linearGradient><linearGradient id="Áåçûìÿííûé_ãðàäèåíò_111-2" x1="675.16" y1="247.08" x2="675.16" y2="164.43" gradientTransform="matrix(1, 0, 0, 1, 0, 0)" xlink:href="#Áåçûìÿííûé_ãðàäèåíò_111"/><linearGradient id="Áåçûìÿííûé_ãðàäèåíò_8-2" x1="675.16" y1="245.44" x2="675.16" y2="166.06" gradientTransform="matrix(1, 0, 0, 1, 0, 0)" xlink:href="#Áåçûìÿííûé_ãðàäèåíò_8"/><linearGradient id="Áåçûìÿííûé_ãðàäèåíò_152-2" x1="675.42" y1="234.24" x2="675.42" y2="177.64" gradientTransform="matrix(1, 0, 0, 1, 0, 0)" xlink:href="#Áåçûìÿííûé_ãðàäèåíò_152"/><linearGradient id="Áåçûìÿííûé_ãðàäèåíò_2-2" x1="671.55" y1="232.18" x2="671.55" y2="183.98" gradientTransform="matrix(1, 0, 0, 1, 0, 0)" xlink:href="#Áåçûìÿííûé_ãðàäèåíò_2"/><radialGradient id="Áåçûìÿííûé_ãðàäèåíò_343" cx="498.93" cy="391.54" r="2.79" gradientTransform="translate(-6424.1 -5079.57) scale(13.33)" gradientUnits="userSpaceOnUse"><stop offset="0" stop-color="#6d639c"/><stop offset="0.15" stop-color="#62598c"/><stop offset="0.43" stop-color="#443e62"/><stop offset="0.83" stop-color="#15141f"/><stop offset="1"/></radialGradient><linearGradient id="Áåçûìÿííûé_ãðàäèåíò_291" x1="122.16" y1="242.43" x2="405.14" y2="242.43" gradientUnits="userSpaceOnUse"><stop offset="0" stop-color="#5a25b7"/><stop offset="1" stop-color="#0f1768"/></linearGradient><radialGradient id="Áåçûìÿííûé_ãðàäèåíò_343-2" cx="504.33" cy="389.28" r="6.34" xlink:href="#Áåçûìÿííûé_ãðàäèåíò_343"/><linearGradient id="Áåçûìÿííûé_ãðàäèåíò_111-3" x1="330.67" y1="95.26" x2="473.03" y2="95.26" gradientTransform="matrix(1, 0, 0, 1, 0, 0)" xlink:href="#Áåçûìÿííûé_ãðàäèåíò_111"/><linearGradient id="Áåçûìÿííûé_ãðàäèåíò_115" x1="467.33" y1="212.13" x2="467.33" y2="174.19" gradientTransform="matrix(0.99, 0.16, -0.16, 0.99, 79.57, -31.14)" gradientUnits="userSpaceOnUse"><stop offset="0.03" stop-color="#00f1ff"/><stop offset="0.23" stop-color="#00a1ff"/><stop offset="1" stop-color="#7784ff"/></linearGradient><linearGradient id="Áåçûìÿííûé_ãðàäèåíò_2-3" x1="465.88" y1="210.6" x2="465.88" y2="178.83" gradientTransform="matrix(0.99, 0.16, -0.16, 0.99, 79.57, -31.14)" xlink:href="#Áåçûìÿííûé_ãðàäèåíò_2"/><linearGradient id="Áåçûìÿííûé_ãðàäèåíò_115-2" x1="580.01" y1="188.02" x2="580.01" y2="154.68" xlink:href="#Áåçûìÿííûé_ãðàäèåíò_115"/><linearGradient id="Áåçûìÿííûé_ãðàäèåíò_2-4" x1="579.21" y1="186.78" x2="579.21" y2="157.77" gradientTransform="matrix(0.99, 0.16, -0.16, 0.99, 79.57, -31.14)" xlink:href="#Áåçûìÿííûé_ãðàäèåíò_2"/><radialGradient id="Áåçûìÿííûé_ãðàäèåíò_147" cx="497.81" cy="400.78" r="13" gradientTransform="translate(-6424.1 -5079.57) scale(13.33)" gradientUnits="userSpaceOnUse"><stop offset="0" stop-color="#a26d9f"/><stop offset="1" stop-color="#4034c9"/></radialGradient><radialGradient id="Áåçûìÿííûé_ãðàäèåíò_196" cx="497.81" cy="400.83" r="9.91" gradientTransform="translate(-6424.1 -5079.57) scale(13.33)" gradientUnits="userSpaceOnUse"><stop offset="0" stop-color="#5822b6"/><stop offset="0.63" stop-color="#593290"/><stop offset="0.98" stop-color="#31199a"/></radialGradient><linearGradient id="Áåçûìÿííûé_ãðàäèåíò_127-3" x1="302.49" y1="189.09" x2="302.49" y2="30.6" xlink:href="#Áåçûìÿííûé_ãðàäèåíò_127"/><linearGradient id="Áåçûìÿííûé_ãðàäèåíò_74" x1="367.88" y1="188.07" x2="367.88" y2="184.37" gradientUnits="userSpaceOnUse"><stop offset="0" stop-color="#634bde"/><stop offset="1" stop-color="#cc84c2"/></linearGradient><linearGradient id="Áåçûìÿííûé_ãðàäèåíò_74-2" x1="324.32" y1="96.99" x2="324.32" y2="93.29" xlink:href="#Áåçûìÿííûé_ãðàäèåíò_74"/><linearGradient id="Áåçûìÿííûé_ãðàäèåíò_74-3" x1="163.6" y1="279.84" x2="163.6" y2="276.14" xlink:href="#Áåçûìÿííûé_ãðàäèåíò_74"/><linearGradient id="Áåçûìÿííûé_ãðàäèåíò_74-4" x1="203.27" y1="259.58" x2="203.27" y2="255.88" xlink:href="#Áåçûìÿííûé_ãðàäèåíò_74"/><linearGradient id="Áåçûìÿííûé_ãðàäèåíò_74-5" x1="307.05" y1="133.58" x2="307.05" y2="129.88" xlink:href="#Áåçûìÿííûé_ãðàäèåíò_74"/><linearGradient id="Áåçûìÿííûé_ãðàäèåíò_74-6" x1="362.05" y1="210.61" x2="362.05" y2="206.91" xlink:href="#Áåçûìÿííûé_ãðàäèåíò_74"/><radialGradient id="Áåçûìÿííûé_ãðàäèåíò_99" cx="514.9" cy="396.28" r="2.04" gradientTransform="translate(-6424.1 -5079.57) scale(13.33)" gradientUnits="userSpaceOnUse"><stop offset="0" stop-color="#a183be"/><stop offset="0.12" stop-color="#9378ae"/><stop offset="0.37" stop-color="#705b84"/><stop offset="0.7" stop-color="#372d41"/><stop offset="1"/></radialGradient><radialGradient id="Áåçûìÿííûé_ãðàäèåíò_99-2" cx="530.72" cy="396.25" r="1.46" xlink:href="#Áåçûìÿííûé_ãðàäèåíò_99"/><radialGradient id="Áåçûìÿííûé_ãðàäèåíò_99-3" cx="509.08" cy="395.61" r="1.71" xlink:href="#Áåçûìÿííûé_ãðàäèåíò_99"/><radialGradient id="Áåçûìÿííûé_ãðàäèåíò_343-3" cx="495.91" cy="400.95" r="3.91" xlink:href="#Áåçûìÿííûé_ãðàäèåíò_343"/><linearGradient id="Áåçûìÿííûé_ãðàäèåíò_108-4" x1="417.45" y1="262.21" x2="417.45" y2="229.97" xlink:href="#Áåçûìÿííûé_ãðàäèåíò_108"/><linearGradient id="Áåçûìÿííûé_ãðàäèåíò_127-4" x1="364.14" y1="228.82" x2="364.14" y2="162.59" xlink:href="#Áåçûìÿííûé_ãðàäèåíò_127"/><linearGradient id="Áåçûìÿííûé_ãðàäèåíò_127-5" x1="190.23" y1="299.64" x2="190.23" y2="231.68" xlink:href="#Áåçûìÿííûé_ãðàäèåíò_127"/><linearGradient id="Áåçûìÿííûé_ãðàäèåíò_116" x1="53.55" y1="253.88" x2="386.53" y2="253.88" gradientTransform="matrix(1, 0, 0, 1, 0, 0)" xlink:href="#Áåçûìÿííûé_ãðàäèåíò_99"/><radialGradient id="Áåçûìÿííûé_ãðàäèåíò_99-4" cx="499.17" cy="400.7" r="8.41" xlink:href="#Áåçûìÿííûé_ãðàäèåíò_99"/><linearGradient id="Áåçûìÿííûé_ãðàäèåíò_117" x1="230.92" y1="296.26" x2="230.92" y2="279.84" gradientUnits="userSpaceOnUse"><stop offset="0"/><stop offset="0.3" stop-color="#372d41"/><stop offset="0.63" stop-color="#705b84"/><stop offset="0.88" stop-color="#9378ae"/><stop offset="1" stop-color="#a183be"/></linearGradient><linearGradient id="Áåçûìÿííûé_ãðàäèåíò_117-2" x1="277.85" y1="288.93" x2="277.85" y2="270.28" xlink:href="#Áåçûìÿííûé_ãðàäèåíò_117"/><linearGradient id="Áåçûìÿííûé_ãðàäèåíò_116-2" x1="281.51" y1="234.13" x2="281.51" y2="162.69" gradientTransform="matrix(1, 0, 0, 1, 0, 0)" xlink:href="#Áåçûìÿííûé_ãðàäèåíò_99"/><linearGradient id="Áåçûìÿííûé_ãðàäèåíò_116-3" x1="286.42" y1="201.87" x2="286.42" y2="30.95" gradientTransform="matrix(1, 0, 0, 1, 0, 0)" xlink:href="#Áåçûìÿííûé_ãðàäèåíò_99"/><radialGradient id="Áåçûìÿííûé_ãðàäèåíò_99-5" cx="504.24" cy="395.41" r="9.26" xlink:href="#Áåçûìÿííûé_ãðàäèåíò_99"/><linearGradient id="Áåçûìÿííûé_ãðàäèåíò_108-5" x1="557.97" y1="260.04" x2="557.97" y2="244.22" xlink:href="#Áåçûìÿííûé_ãðàäèåíò_108"/><linearGradient id="Áåçûìÿííûé_ãðàäèåíò_116-4" x1="378.41" y1="165.66" x2="378.41" y2="42.99" gradientTransform="matrix(1, 0, 0, 1, 0, 0)" xlink:href="#Áåçûìÿííûé_ãðàäèåíò_99"/><linearGradient id="Áåçûìÿííûé_ãðàäèåíò_117-3" x1="551.96" y1="121.66" x2="551.96" y2="28.3" xlink:href="#Áåçûìÿííûé_ãðàäèåíò_117"/><radialGradient id="Áåçûìÿííûé_ãðàäèåíò_257" cx="526.28" cy="384.85" r="6.19" gradientTransform="translate(-6424.1 -5079.57) scale(13.33)" gradientUnits="userSpaceOnUse"><stop offset="0.01" stop-color="#fbca59"/><stop offset="1" stop-color="#9f54ff"/></radialGradient><radialGradient id="Degradado_sin_nombre_64-2" cx="-719.5" cy="-391.98" r="3.61" gradientTransform="matrix(-27.82, 0, 0, -26.18, -19549.49, -10056.36)" xlink:href="#Degradado_sin_nombre_64"/><radialGradient id="Degradado_sin_nombre_61" cx="-720.8" cy="-399.79" r="3.7" gradientTransform="matrix(-27.82, 0, 0, -26.18, -19378.49, -10271.18)" gradientUnits="userSpaceOnUse"><stop offset="0" stop-color="#006bff"/><stop offset="0.16" stop-color="#3087ff" stop-opacity="0.81"/><stop offset="0.47" stop-color="#88baff" stop-opacity="0.47"/><stop offset="0.72" stop-color="#c8dfff" stop-opacity="0.22"/><stop offset="0.91" stop-color="#f0f6ff" stop-opacity="0.06"/><stop offset="1" stop-color="#fff" stop-opacity="0"/></radialGradient><linearGradient id="Áåçûìÿííûé_ãðàäèåíò_117-4" x1="631.56" y1="168.72" x2="631.56" y2="104.82" xlink:href="#Áåçûìÿííûé_ãðàäèåíò_117"/><radialGradient id="Áåçûìÿííûé_ãðàäèåíò_99-6" cx="504.93" cy="388.34" r="8.12" xlink:href="#Áåçûìÿííûé_ãðàäèåíò_99"/><linearGradient id="Degradado_sin_nombre_53" x1="462.46" y1="155.61" x2="850.91" y2="218.59" gradientUnits="userSpaceOnUse"><stop offset="0" stop-color="#026bbb"/><stop offset="0.15" stop-color="#3b8cca" stop-opacity="0.78"/><stop offset="0.36" stop-color="#80b5dd" stop-opacity="0.5"/><stop offset="0.56" stop-color="#b7d5ec" stop-opacity="0.28"/><stop offset="0.73" stop-color="#dfecf6" stop-opacity="0.13"/><stop offset="0.89" stop-color="#f6fafd" stop-opacity="0.03"/><stop offset="1" stop-color="#fff" stop-opacity="0"/></linearGradient><linearGradient id="Degradado_sin_nombre_53-2" x1="672.35" y1="162.22" x2="993.03" y2="214.21" xlink:href="#Degradado_sin_nombre_53"/></defs><g class="cls-2"><g id="Capa_1" data-name="Capa 1"><path class="cls-3" d="M212.9,229.5c5.22-2.72,4.18-8.18,9.46-12s7.49-5.68,8.49-11.43c.94-5.44,1-10.15,1.67-15.36.65-4.88,2.8-13.49-.45-17.84a39.35,39.35,0,0,0-3.63-3.9c-1.45-1.45-3.14-4.64-4.53-6.89-4.26-6.86-12.47-5.05-17.3-7.22-6.38-2.86-13.49-7.17-20.54-10.66-19.33-9.6-27.3-3.53-37.16-7,4.06,5.41,9.63,5.39,12.24,6.81,5.4,2.93,2.21,8.07-2.54,8.5-5.16.46-8-2-10.39-4.76-19.87-22.87-39.75-3.67-64.07-7.47,18.62,11.25,31.43,3,38.1,8.3,6.87,5.47.3,16-14.89,12.52-5.66-1.3-11-4-16.16-6.54-7.49-3.71-16.44-11.38-24.39-13.41-13-3.34-23.17,7.22-39.37,4.5,13.25,7.19,17.24,3.09,28.48,4.92,7.78,1.27,7.39,10.84-1.15,11.15C38.06,162.37,29.38,145.09,5,149c12.82,1.92,22.88,12.84,31.16,21.14,9.67,9.69,16.15,14.08,35.93,10.72a74.31,74.31,0,0,1,12.07-1.51c21.07-.11,17,15,8.64,15.39s-14.68-9.07-29-6.93c16,6.14,22.82,26.83,41.61,22,11.2-2.91,21.5-10.5,33.52-4.57,4.2,2.07,2.55,7.8-2.4,6.15-4.61-1.54-8.21-3.13-14.08-.44,12.63,1.65,24.23,13.31,33.86,18.84,15.72,9,41,7.89,56.64-.25Z"/><path class="cls-4" d="M217.34,160.34c-18.6-3.45-32.32-15.26-45.44-18.2a51.26,51.26,0,0,0-11.38-1.07c7.23,1.5,13.56,7.15,6.81,13.13-5.54,4.9-14.43,4.89-22.45-4.79-6.37-7.7-11.86-11.33-24.8-9-7.47,1.34-13,3.58-21.71,3.13,12.27,3.36,23-2.16,31.83,3.28,12.86,7.93,3.85,19.62-10.34,20-11.09.28-27.36-6.66-38-14.09-4.73-3.29-8.49-6-13-7.36-9.66-2.91-20.12,2.33-30.11,3.11,8.38,1.26,12.58-.93,21.1.52,14,2.39,11.06,17.06-.2,17.8C43.37,167.88,32,152.5,16.17,150.31c14.44,5.63,18.69,15,30,22.13,9.54,6,18.22,5.33,33.28,3.76,5.94-.62,15-1.36,20.19,0,7.2,1.83,14.06,8.57,10.16,16.31-1.84,3.65-8.88,6.57-13.47,6.33-6.91-.35-15.36-7.23-21.08-8.73,7.71,5.05,13.83,14.66,23.48,15.48,7.88.66,16.81-6.86,27.33-7.82,4.66-.43,11.61.18,14.95,1.59,11.55,4.86,8.64,18.66-4.38,14.44,8.57,3.38,17,11.06,27.15,15.05,13.3,5.23,29.16,7,49.31-2.26A7,7,0,0,0,215.4,224a37.35,37.35,0,0,1,9.77-10.93,16,16,0,0,0,3.62-6.37c2.42-12.43,2.54-23.07-.39-32.77a68.1,68.1,0,0,1-5.82-9.65,10.88,10.88,0,0,0-5.24-3.92Z"/><path class="cls-5" d="M162.82,221.58l28-65.6c-7.58,4.46-33.39,6.52-41.42.24-10.59-8.28-8.66-14-29.21-13.77,12.92.06,20.75,6.79,21.14,14.73.28,6-4.06,12.26-13,14.14a38.61,38.61,0,0,1-14.91-.42c-22.77-4.59-31.58-17.13-40.35-21.15-7.8-3.59-11.48-3.9-21.41-2,7.8-.41,22,.74,23.3,10.67.75,5.59-6,10.59-14.51,10.68-7.58.08-9.56-1.58-16.16-4.34,9.21,7,12.32,8.49,24.71,7.82,4.29-.23,8.56-.88,12.87-1.33,9.06-.94,20.42-.64,28,4.92,13.26,9.74,4.18,23.24-9.46,24.24,5.29,1.19,6.73.13,11.47-1.43,24.91-8.24,32.91-6.11,39,8.46Z"/><ellipse class="cls-6" cx="384.78" cy="293.05" rx="370.97" ry="72.32"/><ellipse class="cls-7" cx="384.78" cy="293.05" rx="333.87" ry="65.09"/><ellipse class="cls-8" cx="384.78" cy="293.05" rx="300.48" ry="58.58"/><ellipse class="cls-9" cx="384.78" cy="293.05" rx="270.44" ry="52.72"/><ellipse class="cls-10" cx="384.78" cy="293.05" rx="243.39" ry="47.45"/><ellipse class="cls-11" cx="451.08" cy="151.61" rx="339.57" ry="143.85"/><path class="cls-12" d="M333,181.07s3.29-81.2,45.75-120.72,85.14-42.66,124.78-28.16c57.58,21.07,72.4,100.82,77,137.82Z"/><path class="cls-13" d="M353.61,95.94s9.45,23.79,32.92,39.43c0,0,34.55-38.54,64.49-39.11s44.55,54.44,44.55,54.44l42.56,13-207.46,4.68S332.72,118.67,353.61,95.94Z"/><path class="cls-14" d="M432.26,176.84l-19.37,1.28s-3.35-64.07,30.92-80.79Z"/><path class="cls-15" d="M432.26,176.84s-10.59-7.73-9.31-33.93c1.49-30.56,12.67-41.52,20.86-45.58s21.07-2.88,28.23,6.78,33.85,70.31,33.85,70.31S446.55,180.75,432.26,176.84Z"/><path class="cls-16" d="M473,24.9s-45.44-.65-80.53,29.4c-31.26,26.76-54,78-56.25,115.59a8.25,8.25,0,0,0,1.06,2.67h0c1.14,2,3.47,4.63,8.14,6.65,0,0-101,13.64-200.68,43.29,0,0,34.89-74.59,93.13-119.91C286.06,65.13,348,33.74,450.72,23.35q6.7-.69,13.65-1.24Z"/><path class="cls-17" d="M486.69,127.3s.22,11.61,1.15,16.63c0,0-8.94,8.57-10.24,12.11s-2.05,11.36-2.05,11.36l40-2.42a90.81,90.81,0,0,0-18.28-19.37,39.26,39.26,0,0,1-.63-16.07Z"/><path class="cls-18" d="M538.12,113.39c-.09,1-1.77,7.27-10,12.66a34.7,34.7,0,0,1-3.42,2h0a34.82,34.82,0,0,1-14.06,3.71c-28.87-.93-39.68-11.82-39.68-11.82-11.74-5.59-15.45-16-14.15-20.11s3.53-5.59,3.53-5.59c.56-7.64,2.53-20.32,7.83-24.77,6.21-5.22,14.66-7.79,23.14-8.78,14-1.65,28.11,1,32.32,3.34,3.06,1.66,11.17,9.21,11.73,19.27s-.79,25.46-.79,25.46S538.21,112.37,538.12,113.39Z"/><path class="cls-19" d="M524.88,111.55c.17.8,6.58,1,11.15-1.22a3.53,3.53,0,0,0-1.09-2.62c-1.19-1,.92-17.26.92-17.26s-.64-3.34-2-4.53C533.89,85.92,521.69,97.05,524.88,111.55Z"/><path class="cls-20" d="M537.75,99h0a27.53,27.53,0,0,1-2.86,10.13,20.5,20.5,0,0,1-6.91,2c-1.45.12-2.52-.06-2.61-.76a23.71,23.71,0,0,1,.21-7.29s0,0,0,0a18.92,18.92,0,0,1,.53-2.19c.09-.31.16-.58.23-.78s.08-.27.12-.4l0,0v0A28,28,0,0,1,534,88.16C537.24,91.3,538,95.33,537.75,99Z"/><path class="cls-21" d="M507.33,111.13C506.05,113,484.44,117.94,473,101c0,0,2.61-13.11,10.43-16.65s14.67,0,19.37,7.61C507.36,99.27,508.2,109.9,507.33,111.13Z"/><path class="cls-22" d="M506.92,110.6c-.72,1.11-12.75,3.7-22.27-.84a18.9,18.9,0,0,1-10-11.09,22.6,22.6,0,0,1,7-9.65v0a13.71,13.71,0,0,1,7.22-2.71C502.6,85.36,509.08,107.34,506.92,110.6Z"/><path class="cls-23" d="M506.92,110.6c-.72,1.11-12.75,3.7-22.27-.84-6.45-7.27-3-20.74-3-20.74v0a13.71,13.71,0,0,1,7.22-2.71C502.6,85.36,509.08,107.34,506.92,110.6Z"/><path class="cls-24" d="M534.89,109.14a20.5,20.5,0,0,1-6.91,2c-1.31-1.85-2-5.07-2.4-8,0,0,0,0,0,0A27.83,27.83,0,0,1,534,88.16C542,96,534.89,109.14,534.89,109.14Z"/><path class="cls-25" d="M516,116.68a15.19,15.19,0,0,0,5.45.88c3.25,0,4.17-1.24,4.17-1.24S520.48,113.25,516,116.68Z"/><path class="cls-26" d="M515.59,116.74a3.28,3.28,0,0,1,3.91,2.05Z"/><path class="cls-27" d="M523.69,118.79s-.16-2.47,1.89-2.47Z"/><path class="cls-28" d="M513.26,122.3a15.93,15.93,0,0,0,6.24,1.6,12,12,0,0,0,6.78-1.6c-.34.19-2.58,3.67-6.78,3.19C514.85,125,513.26,122.3,513.26,122.3Z"/><path class="cls-29" d="M456.74,99.8s.25-1.38,3.05-1.17,9.78,6.71,11.1,13,0,8.29,0,8.29S455.43,113.67,456.74,99.8Z"/><path class="cls-30" d="M460.42,101.08a13,13,0,0,0,9.4,13.39S468.38,104.78,460.42,101.08Z"/><path class="cls-31" d="M524.63,128a34.82,34.82,0,0,1-14.06,3.71c-28.87-.93-39.68-11.82-39.68-11.82-11.74-5.59-15.42-16.31-14.12-20.41s3.5-5.29,3.5-5.29c.56-7.64,2.53-20.32,7.83-24.77,6.21-5.22,14.66-7.79,23.14-8.78-5,1.08-15.53,4.18-21.43,11.84-7.93,10.31,2.68,37.71,17.66,48.9C503.17,133.14,521.29,128.77,524.63,128Z"/><path class="cls-32" d="M496.13,134.62s-4.21.19-8.86,4.66c0,0-.68-7.7-.57-11.26,0,0,6.42,1.82,9.84,2.33C496.54,130.35,496.15,133.78,496.13,134.62Z"/><path class="cls-33" d="M478.58,91.92S477,95.6,478,98.12s14.53,6.61,22.81,6.7,2.7-8.62,2.7-8.62-3.66-9.28-12.92-9.9S478.58,91.92,478.58,91.92Z"/><path class="cls-34" d="M537.75,99h0c-2.59,3-11.5,6-12,5.21-.33-.53,0-2.18.37-3.36.09-.31.16-.58.23-.78s.11-.34.12-.4l0,0v0A28,28,0,0,1,534,88.16C537.24,91.3,538,95.33,537.75,99Z"/><path class="cls-35" d="M482.59,100.58c.11-1.25,6.31,1.28,6.28,2.2S482.47,101.84,482.59,100.58Z"/><path class="cls-35" d="M490.56,103.21s2.84-.4,3.39.64C494,103.85,491.63,104.75,490.56,103.21Z"/><path class="cls-35" d="M528.07,104.11s2.89-1.66,3.78-.9A5.61,5.61,0,0,1,528.07,104.11Z"/><path class="cls-36" d="M470.89,72.51s5.48,4,26.42,6.15,35.36-4.49,35.36-4.49-3.9-11.47-19.29-13C513.38,61.18,483,55.47,470.89,72.51Z"/><path class="cls-37" d="M519.91,72.5c-.41-9.9-5.44-14.65-5.44-14.65l-1.09,3.33c-7.5,6.13-18.84-.72-19.34-1h0c4.28-12.65,19.76-11.94,19.76-11.94C523.41,54.49,519.91,72.5,519.91,72.5Z"/><path class="cls-38" d="M478.55,154.29s.82,8.18,4.17,10,23.33.08,26.47-1.83.28-5.34.28-5.34,6.23,7.33,6.49,8l-40.41,2.29S477,156.38,478.55,154.29Z"/><path class="cls-39" d="M514.66,146.92s7.22,16.38,15.53,23.09h35.13s15.45-10.86,19.74-22.66a20.47,20.47,0,0,0-7.27-12.73s-7.07,20.12-18.06,27.75-19.55,3.66-21.6,1.36S527.88,148.59,523.69,137c0,0-1.86-1.23-6.7,2.5S514.66,146.92,514.66,146.92Z"/><path class="cls-40" d="M501.27,165.85s12.18-4.87,13-6.09-1.49-7.45-1-9a10,10,0,0,1,1.74-3.07l2.62,4.36s6.82-.73,9.33-5.29l-.86-3.82s3.56.37,4.49,1.4.91,7.33.91,7.33,0,1.36.47,1.36,1.7-2.78,2.35-2.87a2.67,2.67,0,0,1,2.33,1.16c.41.79,0,4.9-1.26,6.85s-7,5.86-10.75,6.49-4.85,0-6.39.14-10.12,6.63-10.12,6.63S503.08,170.48,501.27,165.85Z"/><path class="cls-41" d="M567.41,154.29s-.28-3.7.56-5.3,3-3.85,3.7-5.52,1.05-3.07,2-3.63a2.62,2.62,0,0,1,3.35.9c1.05,1.26,1.12,5.86-.7,6.18s-3.14-2.19-3.14-2.19-.63,1.47-2.07,4.06A43.14,43.14,0,0,1,567.41,154.29Z"/><path class="cls-42" d="M582.64,156.25a4.5,4.5,0,0,1,2-2c1.4-.62,2.94-2.37,2.38-4a3.8,3.8,0,0,0-2.52-2.16s-6.28-.35-7.26.84.14,2.79,1.75,3.63a7.51,7.51,0,0,0,2.72.91l-1.93,2.92s-4-3.59-5.54-2.09,1.92,6.75,3.53,8.08,4-.32,4.5-1.65S582,157.67,582.64,156.25Z"/><path class="cls-43" d="M514.18,145.8c1.06,1.09,9.44-3.8,9.51-8.76,0,0-2.09-1.28-6.7,2.5S514.18,145.8,514.18,145.8Z"/><path class="cls-44" d="M514.47,57.85l-1.09,3.33c-7.5,6.13-18.84-.72-19.34-1,.38.17,2.74-4.13,7.12-5.81a41.54,41.54,0,0,1,6.47-1.81A19.92,19.92,0,0,1,514.47,57.85Z"/><path class="cls-45" d="M646.39,168.24s-167.81-3.8-302.68,12.22l-8.15-6.68S347.36,41.6,457.36,23.43c0,0,3-.52,8.27-1.12h0c17.35-2,58.67-4.66,93,8.63C610,50.88,643.19,92.6,646.39,168.24Z"/><path class="cls-46" d="M492.78,165.44s80.36-2.28,108.85-2.58S645.77,167,645.77,167s-43.7,4.58-71.95,6.85S497,170.47,497,170.47Z"/><path class="cls-47" d="M499.05,190.32s45.64,35.75,88.1,28.3S644.65,176,645.77,167c0,0,29.39-4.17,42.47-2.6l-30.73,83.24s-83.69-4.31-203.74,14.2C453.77,261.87,481.62,233.44,499.05,190.32Z"/><path class="cls-48" d="M585.4,248.57l-.71-.19c4-15-4.36-22.33-4.44-22.41l.48-.56C580.82,225.49,589.5,233.13,585.4,248.57Z"/><path class="cls-49" d="M495.57,165.37s11.28,31.55,23.19,45.75c0,0-5.81.88-20.27,20s-11.8,26.13-11.8,26.13l-30,4.06Z"/><path class="cls-50" d="M521.89,213s29.65,18.19,65.26,17c36-1.2,45.24-15,45.24-15s-.65,23.38,11.26,32.07l13.86.59,29.33-83.59s-20.67-1.15-41.07,2.95S521.89,213,521.89,213Z"/><path class="cls-51" d="M645.77,167s-9.35,60.43-70.21,58.66c-64.08-1.85-76.51-35.37-76.51-35.37l-2.93-21.66s5.64.45,14.62,1h0c18.15,1.1,50,2.64,76.4,1.74C628.08,170,633.5,166.6,645.77,167Z"/><path class="cls-52" d="M645.77,167s-9.35,60.43-70.21,58.66c-64.08-1.85-76.51-35.37-76.51-35.37l-2.93-21.66s5.64.45,14.62,1h0s3.48,25.42,20.73,40.19,64.13,18.44,82.62,3.46,18.14-44.91,18.14-44.91Z"/><g class="cls-53"><rect class="cls-54" x="111.64" y="155.45" width="368.84" height="106.75"/><path class="cls-54" d="M482.26,164.19v31.56h4.9c-9,10.43-22.58,20.6-39.86,29.95-34.56,18.7-83.76,34.11-139.38,41.8V264H162.42v1.14c-19.17-4.31-35-10.39-46.49-18a54.2,54.2,0,0,1-13.7-12.54h7.63V188.37H107.8c9-10.44,22.58-20.61,39.86-30a284.21,284.21,0,0,1,28.54-13.34v8.59H482.26Z"/><path class="cls-55" d="M482.26,164.46v31.25h3.07c-8.86,10.34-22.35,20.41-39.47,29.67-34.23,18.51-82.95,33.77-138,41.39V264H163.72v.44c-38-8.53-62.89-24.12-65.75-44.75h11.89V188.4h-.23c8.86-10.33,22.35-20.4,39.47-29.66a285.17,285.17,0,0,1,28.26-13.21v8.14h304.9Z"/><path class="cls-56" d="M482.26,164.73v31h1.24c-8.77,10.23-22.13,20.2-39.08,29.37-33.9,18.34-82.15,33.45-136.7,41s-105.1,6.1-142.7-2.35-62.28-23.88-65.11-44.31c-1.41-10.22,2.77-20.72,11.55-30.95s22.13-20.21,39.08-29.38a284.13,284.13,0,0,1,28-13.08v7.69H482.26Z"/><path class="cls-57" d="M493.11,165c1.4,10.11-2.74,20.51-11.43,30.64s-21.92,20-38.7,29.09c-33.57,18.15-81.34,33.12-135.37,40.59s-104.06,6-141.29-2.32-61.67-23.65-64.47-43.88,16.57-41.58,50.13-59.73a278.54,278.54,0,0,1,27.72-12.95v7.23H482.26V165Z"/><path class="cls-58" d="M491.17,165.26c2.77,20-16.4,41.17-49.64,59.14s-80.53,32.8-134,40.2-103,6-139.89-2.3-61.06-23.42-63.83-43.45,16.4-41.16,49.64-59.14a274.11,274.11,0,0,1,27.44-12.82v6.78H482.26v11.59Z"/><path class="cls-59" d="M489.23,165.53c2.74,19.83-16.24,40.76-49.14,58.55s-79.73,32.47-132.68,39.79-102,5.92-138.49-2.28-60.45-23.18-63.19-43S122,177.83,154.87,160A273.89,273.89,0,0,1,182,147.34v6.33H482.26v11.86Z"/><path class="cls-60" d="M487.29,165.8c5.43,39.26-75.15,82.84-180,97.34-52.41,7.25-101,5.86-137.09-2.25s-59.84-22.95-62.55-42.58,16.07-40.34,48.64-57.95a268.32,268.32,0,0,1,26.89-12.57v5.88H481.45V152A29.91,29.91,0,0,1,487.29,165.8Z"/><path class="cls-61" d="M485.35,166.07c5.38,38.86-74.38,82-178.14,96.35-51.88,7.17-99.93,5.8-135.69-2.23s-59.22-22.71-61.91-42.14,15.91-39.93,48.14-57.37a268.44,268.44,0,0,1,26.62-12.44v5.43h295.2v-1.25A29.53,29.53,0,0,1,485.35,166.07Z"/><path class="cls-62" d="M483.41,166.34c5.32,38.45-73.61,81.15-176.3,95.35s-190.24-5.45-195.56-43.91c-2.66-19.23,15.74-39.52,47.64-56.77a262.9,262.9,0,0,1,26.35-12.31v5H465.05V141.25C475.61,148.28,482.08,156.72,483.41,166.34Z"/><path class="cls-63" d="M481.47,166.61c5.27,38-72.84,80.3-174.46,94.36s-188.26-5.4-193.52-43.46c-2.64-19,15.58-39.1,47.15-56.18a261.4,261.4,0,0,1,26.06-12.18v4.52H463.3V141.78C473.76,148.74,480.16,157.09,481.47,166.61Z"/><path class="cls-64" d="M479.53,166.87c5.21,37.66-72.07,79.46-172.62,93.37s-186.28-5.34-191.49-43c-2.6-18.83,15.42-38.69,46.66-55.59a259.28,259.28,0,0,1,25.79-12.05v4.07H461.56V142.31C471.9,149.2,478.23,157.46,479.53,166.87Z"/><path class="cls-65" d="M477.6,167.14c5.15,37.26-71.31,78.61-170.79,92.37S122.52,254.23,117.36,217c-2.57-18.62,15.25-38.28,46.16-55A256,256,0,0,1,189,150.05v3.62H459.81V142.84C470,149.65,476.31,157.83,477.6,167.14Z"/><path class="cls-66" d="M475.66,167.41c5.1,36.85-70.54,77.76-169,91.38S124.4,253.56,119.3,216.71c-2.55-18.43,15.09-37.87,45.66-54.41a254.92,254.92,0,0,1,25.25-11.79v3.16H458.06v-10.3C468.18,150.11,474.38,158.2,475.66,167.41Z"/><path class="cls-67" d="M473.72,167.68c5,36.45-69.78,76.92-167.11,90.38s-180.33-5.17-185.37-41.62c-2.52-18.23,14.92-37.46,45.16-53.81a250.32,250.32,0,0,1,25-11.67v2.71H456.31V143.9C466.32,150.57,472.46,158.57,473.72,167.68Z"/><path class="cls-68" d="M471.78,168c5,36.05-69,76.07-165.27,89.38s-178.34-5.11-183.33-41.16c-2.49-18,14.76-37,44.67-53.22,15-8.09,33.07-15.47,53.46-21.65v12.37H454.57v-9.24C464.47,151,470.53,158.93,471.78,168Z"/><path class="cls-69" d="M469.84,168.21c4.93,35.66-68.24,75.23-163.43,88.4s-176.36-5.06-181.29-40.71c-2.47-17.82,14.59-36.63,44.17-52.63,14.79-8,32.7-15.29,52.87-21.41v11.81H452.82V145C462.61,151.48,468.61,159.3,469.84,168.21Z"/><path class="cls-70" d="M467.9,168.48c4.88,35.25-67.47,74.38-161.59,87.4s-174.38-5-179.25-40.25c-2.44-17.62,14.43-36.22,43.67-52,14.62-7.91,32.34-15.12,52.28-21.18v11.25H451.07v-8.18C460.75,151.93,466.68,159.67,467.9,168.48Z"/><path class="cls-71" d="M466,168.75c4.82,34.85-66.7,73.53-159.75,86.41S133.82,250.21,129,215.36c-2.41-17.42,14.26-35.8,43.17-51.44,14.46-7.82,32-14.95,51.69-20.93v10.68H449.32V146C458.89,152.39,464.76,160,466,168.75Z"/><path class="cls-72" d="M464,169c4.77,34.45-65.93,72.69-157.91,85.41S135.7,249.54,130.94,215.1c-2.39-17.23,14.1-35.4,42.67-50.86,14.29-7.72,31.61-14.77,51.09-20.69v10.12H447.58v-7.12C457,152.85,462.83,160.41,464,169Z"/><path class="cls-73" d="M462.08,169.29c4.71,34-65.16,71.84-156.07,84.41s-168.43-4.83-173.13-38.87c-2.36-17,13.93-35,42.18-50.26,14.12-7.64,31.23-14.61,50.49-20.45v9.55H445.83v-6.59C455.18,153.3,460.91,160.78,462.08,169.29Z"/><path class="cls-74" d="M460.15,169.56c4.65,33.64-64.4,71-154.24,83.42s-166.44-4.77-171.1-38.42c-2.32-16.82,13.78-34.57,41.69-49.67,13.95-7.55,30.86-14.43,49.9-20.21v9H444.08v-6.06C453.32,153.76,459,161.14,460.15,169.56Z"/><path class="cls-75" d="M458.21,169.82c4.6,33.25-63.64,70.15-152.4,82.43s-164.46-4.71-169.06-38c-2.3-16.62,13.61-34.16,41.19-49.07,13.79-7.46,30.5-14.27,49.31-20v8.42H442.34v-5.53C451.46,154.22,457.06,161.51,458.21,169.82Z"/><path class="cls-76" d="M456.27,170.09c4.54,32.85-62.87,69.3-150.56,81.44s-162.47-4.66-167-37.51c-2.27-16.42,13.45-33.74,40.69-48.48,13.63-7.37,30.13-14.09,48.71-19.73v7.86h212.5v-5C449.61,154.67,455.13,161.88,456.27,170.09Z"/><path class="cls-77" d="M454.33,170.36c4.49,32.44-62.1,68.46-148.72,80.44s-160.49-4.6-165-37c-2.24-16.23,13.28-33.34,40.19-47.9,13.46-7.28,29.77-13.91,48.12-19.48v7.29h209.9V149.2C447.75,155.13,453.21,162.25,454.33,170.36Z"/><path class="cls-78" d="M452.39,170.63c4.43,32-61.33,67.61-146.88,79.44S147,245.53,142.57,213.49c-2.22-16,13.12-32.93,39.7-47.3,13.29-7.19,29.39-13.75,47.52-19.25v6.73h207.3v-3.94C445.89,155.59,451.28,162.62,452.39,170.63Z"/><path class="cls-79" d="M450.45,170.9c4.38,31.64-60.56,66.76-145,78.45s-156.52-4.49-160.9-36.13c-2.19-15.82,13-32.51,39.2-46.71,13.12-7.1,29-13.57,46.92-19v6.16H435.35v-3.41C444,156,449.36,163,450.45,170.9Z"/><path class="cls-80" d="M448.51,171.16c4.32,31.24-59.79,65.92-143.21,77.46S150.77,244.19,146.45,213c-2.16-15.62,12.79-32.1,38.7-46.12a253.11,253.11,0,0,1,46.33-18.76v5.6H433.6v-2.88C442.18,156.5,447.43,163.36,448.51,171.16Z"/><path class="cls-81" d="M446.57,171.43c4.27,30.84-59,65.07-141.37,76.47s-152.55-4.38-156.81-35.22c-2.14-15.42,12.62-31.68,38.2-45.52a248.83,248.83,0,0,1,45.74-18.52v5H431.85v-2.35C440.32,157,445.51,163.72,446.57,171.43Z"/><path class="cls-82" d="M444.63,171.7c4.22,30.44-58.26,64.23-139.53,75.47s-150.56-4.32-154.77-34.76c-2.11-15.21,12.45-31.27,37.71-44.93a246.14,246.14,0,0,1,45.14-18.28v4.47H430.1v-1.82C438.46,157.41,443.58,164.09,444.63,171.7Z"/><path class="cls-83" d="M442.7,172c4.15,30-57.5,63.38-137.7,74.47s-148.58-4.26-152.74-34.29c-2.07-15,12.3-30.87,37.22-44.34a242.33,242.33,0,0,1,44.54-18v3.9H428.36v-1.29C436.6,157.87,441.66,164.46,442.7,172Z"/><path class="cls-84" d="M440.76,172.24c4.1,29.63-56.73,62.53-135.86,73.48s-146.6-4.21-150.7-33.84c-2-14.82,12.13-30.45,36.72-43.75a239.46,239.46,0,0,1,44-17.8v3.34H426.61v-.76C434.75,158.33,439.73,164.83,440.76,172.24Z"/><path class="cls-85" d="M438.82,172.51c4,29.23-56,61.68-134,72.48s-144.61-4.15-148.66-33.38c-2-14.62,12-30,36.22-43.16a236.48,236.48,0,0,1,43.36-17.55v2.77H424.86v-.23C432.89,158.78,437.81,165.2,438.82,172.51Z"/><path class="cls-86" d="M436.88,172.77c4,28.84-55.19,60.84-132.18,71.49s-142.63-4.09-146.62-32.92c-2-14.42,11.8-29.63,35.72-42.56a232.89,232.89,0,0,1,42.77-17.32v2.21H390.94V141.51C417.48,147.46,434.88,158.36,436.88,172.77Z"/><path class="cls-87" d="M434.94,173c3.93,28.43-54.42,60-130.34,70.5S164,239.5,160,211.07c-2-14.21,11.64-29.21,35.23-42A229.67,229.67,0,0,1,237.41,152v1.65H389.64V142.21C415.81,148.08,433,158.83,434.94,173Z"/><path class="cls-88" d="M433,173.31c3.88,28-53.65,59.15-128.5,69.5s-138.66-4-142.54-32,53.65-59.14,128.5-69.5v12.37h97.88V142.91C414.14,148.71,431.06,159.3,433,173.31Z"/><path class="cls-89" d="M431.06,173.58c3.82,27.63-52.88,58.3-126.66,68.51s-136.68-3.92-140.5-31.55S216.78,152.23,290.56,142v11.64H387v-10C412.47,149.33,429.15,159.76,431.06,173.58Z"/><path class="cls-90" d="M429.12,173.85c3.77,27.23-52.12,57.45-124.82,67.51s-134.7-3.86-138.46-31.09S218,152.81,290.66,142.76v10.91h95.08v-9.35C410.8,150,427.24,160.23,429.12,173.85Z"/><path class="cls-90" d="M427.18,174.12c3.72,26.82-51.35,56.6-123,66.51S171.49,236.83,167.78,210s51.35-56.61,123-66.52v10.19h93.68V145C409.13,150.57,425.33,160.7,427.18,174.12Z"/><path class="cls-91" d="M425.66,174.33c3.67,26.51-50.75,55.94-121.54,65.73S173,236.3,169.3,209.79s50.75-55.94,121.54-65.74v9.62h92.58v-8.09C407.82,151.05,423.82,161.07,425.66,174.33Z"/><path class="cls-92" d="M424.13,174.54c3.63,26.19-50.14,55.27-120.09,65s-129.59-3.72-133.21-29.91,50.14-55.28,120.09-65v9H382.4v-7.54C406.5,151.54,422.32,161.44,424.13,174.54Z"/><path class="cls-93" d="M422.61,174.75c3.58,25.88-49.54,54.61-118.65,64.17s-128-3.67-131.61-29.55S221.89,154.76,291,145.2v8.47h90.37v-7C405.19,152,420.82,161.81,422.61,174.75Z"/><path class="cls-94" d="M421.08,175c3.54,25.56-48.93,53.94-117.2,63.39s-126.46-3.63-130-29.19,48.93-53.95,117.2-63.39v7.9h89.27v-6.43C403.88,152.52,419.31,162.18,421.08,175Z"/><path class="cls-95" d="M419.56,175.17c3.49,25.25-48.34,53.28-115.76,62.61s-124.9-3.59-128.4-28.84,48.34-53.27,115.76-62.6v7.33h88.17v-5.88C402.56,153,417.81,162.55,419.56,175.17Z"/><path class="cls-96" d="M418,175.38c3.45,24.94-47.73,52.61-114.3,61.82s-123.35-3.53-126.8-28.47,47.73-52.61,114.3-61.82v6.76H378.3v-5.33C401.25,153.49,416.3,162.91,418,175.38Z"/><path class="cls-97" d="M416.5,175.59c3.41,24.62-47.12,51.95-112.85,61s-121.79-3.49-125.19-28.11,47.12-51.94,112.85-61v6.19h86V148.9C399.94,154,414.8,163.28,416.5,175.59Z"/><path class="cls-98" d="M415,175.8c3.36,24.31-46.52,51.29-111.41,60.26S183.34,232.61,180,208.31,226.5,157,291.39,148.05v5.62h84.87v-4.22C398.62,154.47,413.3,163.65,415,175.8Z"/><path class="cls-99" d="M413.45,176c3.32,24-45.91,50.61-110,59.47s-118.66-3.4-122-27.39,45.91-50.61,110-59.47v5h83.77V150C397.31,155,411.79,164,413.45,176Z"/><path class="cls-100" d="M411.93,176.23c3.27,23.67-45.31,50-108.52,58.69s-117.1-3.36-120.38-27,45.31-49.95,108.52-58.69v4.47h82.66v-3.11C396,155.45,410.29,164.39,411.93,176.23Z"/><path class="cls-101" d="M410.4,176.44c3.23,23.35-44.71,49.28-107.07,57.91S187.79,231,184.56,207.68s44.71-49.29,107.07-57.91v3.9h81.56v-2.56C394.68,155.94,408.78,164.76,410.4,176.44Z"/><ellipse class="cls-102" cx="297.48" cy="192.06" rx="112.45" ry="42.12" transform="translate(-23.51 42.57) rotate(-7.88)"/><ellipse class="cls-103" cx="297.48" cy="192.06" rx="110.91" ry="41.54" transform="translate(-23.51 42.57) rotate(-7.88)"/><ellipse class="cls-104" cx="297.48" cy="192.06" rx="109.37" ry="40.96" transform="translate(-23.51 42.57) rotate(-7.88)"/><ellipse class="cls-105" cx="297.48" cy="192.06" rx="107.83" ry="40.38" transform="translate(-23.51 42.57) rotate(-7.88)"/><ellipse class="cls-106" cx="297.48" cy="192.06" rx="106.29" ry="39.81" transform="translate(-23.51 42.57) rotate(-7.88)"/><ellipse class="cls-107" cx="297.48" cy="192.06" rx="104.75" ry="39.23" transform="translate(-23.51 42.57) rotate(-7.88)"/><ellipse class="cls-108" cx="297.48" cy="192.06" rx="103.21" ry="38.65" transform="translate(-23.51 42.57) rotate(-7.88)"/><ellipse class="cls-109" cx="297.48" cy="192.06" rx="101.67" ry="38.08" transform="translate(-23.51 42.57) rotate(-7.88)"/><ellipse class="cls-110" cx="297.48" cy="192.06" rx="100.13" ry="37.5" transform="translate(-23.51 42.57) rotate(-7.88)"/><ellipse class="cls-111" cx="297.48" cy="192.06" rx="98.59" ry="36.92" transform="translate(-23.51 42.57) rotate(-7.88)"/><ellipse class="cls-112" cx="297.48" cy="192.06" rx="97.05" ry="36.35" transform="translate(-23.51 42.58) rotate(-7.88)"/><ellipse class="cls-113" cx="297.48" cy="192.06" rx="95.51" ry="35.77" transform="translate(-23.51 42.57) rotate(-7.88)"/><ellipse class="cls-114" cx="297.48" cy="192.06" rx="93.97" ry="35.19" transform="translate(-23.51 42.57) rotate(-7.88)"/><ellipse class="cls-115" cx="297.48" cy="192.06" rx="92.43" ry="34.62" transform="translate(-23.51 42.57) rotate(-7.88)"/><ellipse class="cls-116" cx="297.48" cy="192.06" rx="90.89" ry="34.04" transform="translate(-23.51 42.57) rotate(-7.88)"/><ellipse class="cls-117" cx="297.48" cy="192.06" rx="89.35" ry="33.46" transform="translate(-23.51 42.57) rotate(-7.88)"/><ellipse class="cls-118" cx="297.48" cy="192.06" rx="87.81" ry="32.88" transform="matrix(0.99, -0.14, 0.14, 0.99, -23.51, 42.57)"/><ellipse class="cls-119" cx="297.48" cy="192.06" rx="86.27" ry="32.31" transform="translate(-23.51 42.57) rotate(-7.88)"/><ellipse class="cls-120" cx="297.48" cy="192.06" rx="84.73" ry="31.73" transform="translate(-23.51 42.57) rotate(-7.88)"/><ellipse class="cls-121" cx="297.48" cy="192.06" rx="83.19" ry="31.15" transform="translate(-23.51 42.57) rotate(-7.88)"/><ellipse class="cls-122" cx="297.48" cy="192.06" rx="81.64" ry="30.58" transform="translate(-23.51 42.57) rotate(-7.88)"/><ellipse class="cls-123" cx="297.48" cy="192.06" rx="80.1" ry="30" transform="translate(-23.51 42.57) rotate(-7.88)"/><ellipse class="cls-124" cx="297.48" cy="192.06" rx="78.56" ry="29.42" transform="translate(-23.51 42.57) rotate(-7.88)"/><ellipse class="cls-125" cx="297.48" cy="192.06" rx="77.02" ry="28.85" transform="translate(-23.51 42.57) rotate(-7.88)"/><ellipse class="cls-126" cx="297.48" cy="192.06" rx="75.48" ry="28.27" transform="translate(-23.51 42.57) rotate(-7.88)"/><ellipse class="cls-127" cx="297.48" cy="192.06" rx="73.94" ry="27.69" transform="translate(-23.51 42.57) rotate(-7.88)"/><ellipse class="cls-128" cx="297.48" cy="192.06" rx="72.4" ry="27.12" transform="translate(-23.51 42.58) rotate(-7.88)"/><ellipse class="cls-129" cx="297.48" cy="192.06" rx="70.86" ry="26.54" transform="translate(-23.51 42.57) rotate(-7.88)"/><ellipse class="cls-130" cx="297.48" cy="192.06" rx="69.32" ry="25.96" transform="translate(-23.51 42.57) rotate(-7.88)"/><ellipse class="cls-131" cx="297.48" cy="192.06" rx="67.78" ry="25.38" transform="translate(-23.51 42.57) rotate(-7.88)"/><ellipse class="cls-132" cx="297.48" cy="192.06" rx="66.24" ry="24.81" transform="translate(-23.51 42.57) rotate(-7.88)"/><ellipse class="cls-133" cx="297.48" cy="192.06" rx="64.7" ry="24.23" transform="matrix(0.99, -0.14, 0.14, 0.99, -23.51, 42.57)"/><ellipse class="cls-134" cx="297.48" cy="192.06" rx="63.16" ry="23.65" transform="translate(-23.51 42.57) rotate(-7.88)"/><ellipse class="cls-135" cx="297.48" cy="192.06" rx="61.62" ry="23.08" transform="translate(-23.51 42.57) rotate(-7.88)"/><path class="cls-136" d="M357,183.83c1.7,12.3-23.56,26-56.43,30.52S239.67,212.6,238,200.29s23.56-26,56.43-30.52S355.29,171.52,357,183.83Z"/><ellipse class="cls-137" cx="297.48" cy="192.06" rx="58.54" ry="21.92" transform="translate(-23.51 42.57) rotate(-7.88)"/><ellipse class="cls-138" cx="297.48" cy="192.06" rx="57" ry="21.35" transform="translate(-23.51 42.57) rotate(-7.88)"/><ellipse class="cls-139" cx="297.48" cy="192.06" rx="55.46" ry="20.77" transform="translate(-23.51 42.57) rotate(-7.88)"/><path class="cls-140" d="M350.89,184.67c1.53,11.05-21.15,23.31-50.64,27.39s-54.65-1.57-56.18-12.61,21.15-23.31,50.64-27.39S349.36,173.62,350.89,184.67Z"/><path class="cls-141" d="M349.36,184.88c1.49,10.73-20.54,22.64-49.19,26.61S247.08,210,245.6,199.23s20.54-22.64,49.19-26.6S347.88,174.15,349.36,184.88Z"/><ellipse class="cls-142" cx="297.48" cy="192.06" rx="50.84" ry="19.04" transform="translate(-23.51 42.57) rotate(-7.88)"/><ellipse class="cls-143" cx="297.48" cy="192.06" rx="49.3" ry="18.46" transform="translate(-23.51 42.58) rotate(-7.88)"/><ellipse class="cls-144" cx="297.48" cy="192.06" rx="47.75" ry="17.88" transform="translate(-23.51 42.57) rotate(-7.88)"/><ellipse class="cls-145" cx="297.48" cy="192.06" rx="46.21" ry="17.31" transform="translate(-23.51 42.57) rotate(-7.88)"/><ellipse class="cls-146" cx="297.48" cy="192.06" rx="44.67" ry="16.73" transform="translate(-23.51 42.57) rotate(-7.88)"/><ellipse class="cls-147" cx="297.48" cy="192.06" rx="43.13" ry="16.15" transform="translate(-23.51 42.57) rotate(-7.88)"/><path class="cls-148" d="M338.68,186.36c1.18,8.52-16.31,18-39.07,21.13s-42.15-1.21-43.33-9.73,16.31-18,39.07-21.13S337.5,177.84,338.68,186.36Z"/><ellipse class="cls-149" cx="297.48" cy="192.06" rx="40.05" ry="15" transform="translate(-23.51 42.57) rotate(-7.88)"/><path class="cls-150" d="M335.63,186.78c1.09,7.89-15.1,16.65-36.17,19.56s-39-1.11-40.13-9,15.1-16.64,36.17-19.56S334.54,178.89,335.63,186.78Z"/><path class="cls-151" d="M334.1,187c1,7.58-14.5,16-34.72,18.78s-37.47-1.07-38.52-8.65,14.5-16,34.72-18.78S333.05,179.42,334.1,187Z"/><path class="cls-152" d="M332.58,187.2c1,7.26-13.9,15.32-33.28,18s-35.91-1-36.92-8.29,13.9-15.32,33.28-18S331.57,179.94,332.58,187.2Z"/><path class="cls-153" d="M331.05,187.41c1,7-13.29,14.66-31.83,17.22s-34.35-1-35.31-7.93,13.29-14.65,31.83-17.21S330.09,180.47,331.05,187.41Z"/><path class="cls-154" d="M329.52,187.62c.92,6.63-12.68,14-30.38,16.44s-32.79-.94-33.7-7.57,12.68-14,30.38-16.43S328.61,181,329.52,187.62Z"/><ellipse class="cls-155" cx="297.48" cy="192.06" rx="30.81" ry="11.54" transform="translate(-23.51 42.58) rotate(-7.88)"/><path class="cls-156" d="M326.47,188.05c.83,6-11.48,12.65-27.49,14.87s-29.66-.85-30.49-6.85S280,183.41,296,181.2,325.64,182.05,326.47,188.05Z"/><ellipse class="cls-157" cx="297.48" cy="192.06" rx="27.73" ry="10.38" transform="translate(-23.51 42.57) rotate(-7.88)"/><ellipse class="cls-158" cx="297.48" cy="192.06" rx="26.19" ry="9.81" transform="translate(-23.51 42.57) rotate(-7.88)"/><path class="cls-159" d="M321.89,188.68c.7,5-9.66,10.66-23.15,12.52s-25-.71-25.68-5.76,9.67-10.66,23.16-12.53S321.2,183.63,321.89,188.68Z"/><path class="cls-160" d="M320.37,188.89c.65,4.74-9.06,10-21.7,11.74s-23.42-.67-24.08-5.41,9.06-10,21.7-11.73S319.71,184.16,320.37,188.89Z"/><path class="cls-161" d="M318.84,189.1c.61,4.42-8.45,9.33-20.25,11s-21.86-.63-22.47-5.05,8.45-9.32,20.25-10.95S318.23,184.68,318.84,189.1Z"/><path class="cls-162" d="M317.32,189.31c.56,4.11-7.86,8.66-18.81,10.18s-20.3-.59-20.87-4.69,7.86-8.66,18.81-10.17S316.75,185.21,317.32,189.31Z"/><ellipse class="cls-163" cx="297.48" cy="192.06" rx="18.49" ry="6.92" transform="translate(-23.51 42.58) rotate(-7.88)"/><ellipse class="cls-164" cx="297.48" cy="192.06" rx="16.95" ry="6.35" transform="matrix(0.99, -0.14, 0.14, 0.99, -23.51, 42.58)"/><path class="cls-165" d="M312.74,190c.44,3.15-6,6.66-14.47,7.82s-15.61-.45-16-3.6,6-6.66,14.47-7.83S312.3,186.79,312.74,190Z"/><path class="cls-166" d="M311.21,190.16c.4,2.84-5.43,6-13,7s-14.05-.4-14.44-3.24,5.43-6,13-7.05S310.82,187.32,311.21,190.16Z"/><path class="cls-167" d="M309.69,190.37c.35,2.52-4.84,5.33-11.58,6.26s-12.49-.36-12.84-2.88,4.84-5.33,11.58-6.26S309.34,187.84,309.69,190.37Z"/><path class="cls-168" d="M308.16,190.58c.31,2.21-4.23,4.66-10.13,5.48s-10.93-.32-11.23-2.52,4.23-4.67,10.13-5.48S307.86,188.37,308.16,190.58Z"/><path class="cls-169" d="M306.64,190.79c.26,1.89-3.63,4-8.69,4.7s-9.36-.27-9.63-2.17,3.63-4,8.69-4.69S306.37,188.9,306.64,190.79Z"/><path class="cls-170" d="M305.11,191c.22,1.58-3,3.33-7.23,3.92s-7.81-.23-8-1.81,3-3.33,7.23-3.91S304.89,189.42,305.11,191Z"/><path class="cls-171" d="M303.58,191.21c.18,1.27-2.41,2.67-5.78,3.13s-6.25-.18-6.42-1.44,2.41-2.66,5.78-3.13S303.41,190,303.58,191.21Z"/><path class="cls-172" d="M302.06,191.42c.13,1-1.81,2-4.34,2.35s-4.69-.13-4.82-1.08,1.81-2,4.34-2.35S301.93,190.48,302.06,191.42Z"/><path class="cls-173" d="M300.53,191.64c.09.63-1.21,1.33-2.89,1.56s-3.12-.09-3.21-.72,1.21-1.33,2.89-1.57S300.44,191,300.53,191.64Z"/><path class="cls-174" d="M299,191.85c0,.31-.61.66-1.45.78s-1.56,0-1.61-.36.61-.67,1.45-.78S299,191.53,299,191.85Z"/></g><path class="cls-175" d="M450.45,262.19c13.8-.5,34.14-11.94,46.1-44.25s-.1-65.08-22-62.75-40.09,25.68-42.57,57C429.62,241.47,441.86,262.51,450.45,262.19Z"/><path class="cls-176" d="M451.2,259.7c13.16-.48,32.57-11.39,44-42.22s-.1-62.1-21-59.87S435.9,182.11,433.53,212C431.32,239.93,443,260,451.2,259.7Z"/><path class="cls-177" d="M454.55,248.47c12,1.16,25.51-8.92,34.44-33.06s-.07-48.63-16.47-46.89-29.95,19.19-31.81,42.58C439,233,448.15,247.86,454.55,248.47Z"/><path class="cls-178" d="M445.38,191.76s4.32-7.32,11.8-10.84c9.84-4.63,20.73-1.81,25.82,12.59s-5.67,44.78-20.06,50.83-19.76-8.71-20.81-13.59C440.78,224.54,437.8,208.36,445.38,191.76Z"/><path class="cls-179" d="M652.64,246.71c11.22,2,29.62-3.69,44.89-27.66s11.25-52.52-6.85-54.46-36.81,13.73-44.26,38.55C639.44,226.37,645.66,245.47,652.64,246.71Z"/><path class="cls-180" d="M653.53,245.09c10.78,1.92,28.45-3.54,43.12-26.57s10.8-50.44-6.59-52.3-35.35,13.19-42.5,37C640.86,225.55,646.83,243.9,653.53,245.09Z"/><path class="cls-181" d="M660.61,233.42c8.26,2.89,21.13-1.57,30.84-18.3,10-17.32,6.58-36.05-5.73-37.37s-25,9.34-30.11,26.23C650.86,219.78,655,231.45,660.61,233.42Z"/><path class="cls-182" d="M662.1,190.51a22.87,22.87,0,0,1,10.38-6.08c8-1.84,15.52,1.95,17,13.33s-11.27,32-22.79,34.15-13.13-9.52-13.13-13.28C653.53,213.86,653.9,201.51,662.1,190.51Z"/><path class="cls-183" d="M206.62,188.63s1.44-60.88,43.74-95.34l-10.44,8.28S201.87,138,206.62,188.63Z"/><path class="cls-184" d="M405.14,261.8A84.67,84.67,0,0,1,391,223.64s-106.34-10.78-268.84,28.69C122.16,252.33,307,265.87,405.14,261.8Z"/><path class="cls-185" d="M209.08,188.07s46.63-5.27,87.31-16.94c0,0,1.09-88.14,95.11-137.51,0,0-86.3,31.77-101.07,134.79Z"/><path class="cls-186" d="M473,24.9s-45.44-.65-80.53,29.4c-31.26,26.76-53.86,75.7-56.08,113.26l-5.75.85C347.78,52,420.2,28.18,450.72,23.35a85.81,85.81,0,0,1,13.65-1.24Z"/><path class="cls-187" d="M523,235c-1.65,10.35-8.48,17.86-15.26,16.78s-10.94-10.34-9.29-20.69,8.47-17.86,15.26-16.78S524.69,224.65,523,235Z"/><path class="cls-188" d="M519.37,236c-1.38,8.66-7.1,14.95-12.78,14s-9.16-8.66-7.78-17.32,7.1-15,12.77-14.06S520.75,227.32,519.37,236Z"/><path class="cls-189" d="M636.26,230.92c-1.45,9.09-7.45,15.7-13.41,14.75s-9.61-9.09-8.17-18.18,7.45-15.7,13.41-14.75S637.71,221.83,636.26,230.92Z"/><path class="cls-190" d="M633.93,231.49c-1.26,7.91-6.48,13.65-11.67,12.83s-8.37-7.91-7.11-15.82,6.49-13.66,11.67-12.83S635.19,223.57,633.93,231.49Z"/><path class="cls-191" d="M397,261.86s-68.53,23.24-180.64,33.31-186.62,0-186.62,0c30.92-30.55,102.06-45.07,102.06-45.07C265.85,221.4,386.53,230,386.53,230,388.2,243.1,397,261.86,397,261.86Z"/><path class="cls-192" d="M397,261.86s-68.53,23.24-180.64,33.31-186.62,0-186.62,0,122.72,4.18,189.22-6.71S369.76,233,386.53,230C391,249.9,397,261.86,397,261.86Z"/><g class="cls-193"><path class="cls-194" d="M206.28,189.09l0-.43C202.56,135.83,241.55,99.39,242,99l.49.55c-.39.35-38.91,36.36-35.48,88.6,4.48-1,43.89-10,83.13-20.07a197.07,197.07,0,0,1,18.35-56.63c13.85-27.77,40.77-64.35,90.31-80.88l.23.7c-49.3,16.45-76.09,52.86-89.88,80.51-15,30-18.28,56.38-18.31,56.64l0,.25-.24.07C249,179.47,207.12,188.9,206.7,189Z"/></g><circle class="cls-195" cx="367.88" cy="186.22" r="1.85"/><circle class="cls-196" cx="324.32" cy="95.14" r="1.85"/><circle class="cls-197" cx="163.6" cy="277.99" r="1.85"/><circle class="cls-198" cx="203.27" cy="257.73" r="1.85"/><path class="cls-199" d="M308.91,131.73a1.86,1.86,0,1,1-1.86-1.85A1.85,1.85,0,0,1,308.91,131.73Z"/><circle class="cls-200" cx="362.05" cy="208.76" r="1.85"/><path class="cls-201" d="M434.65,241.43S420.34,200.66,451,167C451,167,429.92,193.85,434.65,241.43Z"/><path class="cls-202" d="M643.78,230s-2.79-33.73,16.83-52.35C660.61,177.64,646.27,195,643.78,230Z"/><path class="cls-203" d="M356.07,226.44s-2.35-40.22,15.8-62.36C371.87,164.08,351.5,183.05,356.07,226.44Z"/><path class="cls-204" d="M123.18,299.62l.37-4.09s60.3-43.58,130.26-62.3c0,0-85.18,22.31-131.65,62.33Z"/><path class="cls-205" d="M386.53,230s31.52,26.54,61.85,31.9c0,0-25.08.77-51.43,0C397,261.86,389,240.49,386.53,230Z"/><g class="cls-193"><path class="cls-206" d="M356,228.82c-5.92-44.46,16.56-66,16.79-66.23l.5.54c-.22.21-22.42,21.53-16.56,65.59Z"/></g><g class="cls-193"><path class="cls-207" d="M122.53,299.64h-.74v-4.26l.14-.11c.52-.42,52.8-43.13,136.56-63.59l.18.71c-81.51,19.92-133.14,60.92-136.14,63.34Z"/></g><path class="cls-208" d="M53.55,278s75.89-22.66,255.36-26.41L386.53,230S141.29,223.94,53.55,278Z"/><path class="cls-209" d="M76.43,295.94s71-.5,132.14-8,178-57.93,178-57.93-108.47,51.27-175.2,59.63S76.43,295.94,76.43,295.94Z"/><path class="cls-210" d="M203.27,296.26v-5.62s28.56-3.2,53.15-10.8l2.16,10.71S213.87,295.48,203.27,296.26Z"/><polygon class="cls-211" points="270.54 288.94 268.88 276.13 286.83 270.28 286.83 286.51 270.54 288.94"/><path class="cls-212" d="M141.08,222.51s-11.32,7.26-11.29,10.72c.05,5.33,84.65-14.12,191.37-30.82s117.77-32.53,110.16-38.33S253.21,169.41,141.08,222.51Z"/><path class="cls-213" d="M155.77,201.87S186,152.46,355.36,79.47c0,0,25.21-33.37,61.71-48.52C417.07,31,251.67,33,155.77,201.87Z"/><path class="cls-214" d="M128.33,229.28s114-59.39,341.49-73.47C469.82,155.81,286,152.31,128.33,229.28Z"/><path class="cls-215" d="M460.68,260s140.67-16,194.59-12.37C655.27,247.67,569.27,234.35,460.68,260Z"/><path class="cls-216" d="M339.29,165.66S353.6,75.14,414,43c0,0,4.81,5.32,3.16,15s-37.56,42.58-43.39,103.52Z"/><path class="cls-217" d="M534.71,116.59S486.65,94.69,473,71.37,489.61,34,501.85,30.3c6.9-2.1,47.82-7.83,83.07,18.81,39.63,30,49.42,72.55,49.42,72.55s-21.17-44.74-41.21-44.25S576.5,112.35,534.71,116.59Z"/><path class="cls-218" d="M645.75,168.24,643.37,167S642.46,90.68,587.15,50C537.31,13.41,473,24.89,473,24.89l-8-2.58c17.35-2,58.67-4.66,93,8.63C609.34,50.88,642.55,92.6,645.75,168.24Z"/><ellipse class="cls-219" cx="467.97" cy="206.91" rx="100.57" ry="94.64" transform="translate(204.28 645.41) rotate(-82.83)"/><ellipse class="cls-220" cx="675.42" cy="196.38" rx="102.94" ry="96.87" transform="translate(396.3 842.02) rotate(-82.83)"/><path class="cls-221" d="M619.75,168.72s3-34.94,1.47-63.9c0,0,4.38,2.47,8.66,12.74,5.54,13.31,13.49,49.42,13.49,49.42Z"/><path class="cls-222" d="M174.39,172.31s76.66-125.44,267.87-148C442.26,24.26,262.77,34.66,174.39,172.31Z"/><path class="cls-223" d="M467.55,178.87,827,95.54l5.14,239.16-378-89.26S445.79,200.66,467.55,178.87Z"/><path class="cls-224" d="M679.46,184.37,995,95.76,974.27,329.94,661.86,233.6S661.21,201.59,679.46,184.37Z"/></g></g></svg>